<?xml version="1.0" encoding="utf-8" standalone="no"?>
<!DOCTYPE svg PUBLIC "-//W3C//DTD SVG 1.1//EN"
  "http://www.w3.org/Graphics/SVG/1.1/DTD/svg11.dtd">
<svg xmlns:xlink="http://www.w3.org/1999/xlink" width="936pt" height="288pt" viewBox="0 0 936 288" xmlns="http://www.w3.org/2000/svg" version="1.1">
 <metadata>
  <rdf:RDF xmlns:dc="http://purl.org/dc/elements/1.1/" xmlns:cc="http://creativecommons.org/ns#" xmlns:rdf="http://www.w3.org/1999/02/22-rdf-syntax-ns#">
   <cc:Work>
    <dc:type rdf:resource="http://purl.org/dc/dcmitype/StillImage"/>
    <dc:date>2025-05-07T16:22:11.339193</dc:date>
    <dc:format>image/svg+xml</dc:format>
    <dc:creator>
     <cc:Agent>
      <dc:title>Matplotlib v3.9.2, https://matplotlib.org/</dc:title>
     </cc:Agent>
    </dc:creator>
   </cc:Work>
  </rdf:RDF>
 </metadata>
 <defs>
  <style type="text/css">*{stroke-linejoin: round; stroke-linecap: butt}</style>
 </defs>
 <g id="figure_1">
  <g id="patch_1">
   <path d="M 0 288 
L 936 288 
L 936 0 
L 0 0 
L 0 288 
z
" style="fill: none"/>
  </g>
  <g id="axes_1">
   <g id="patch_2">
    <path d="M 46.8 253.44 
L 429.709091 253.44 
L 429.709091 28.8 
L 46.8 28.8 
L 46.8 253.44 
z
" style="fill: none"/>
   </g>
   <g id="patch_3">
    <path d="M 51.586364 253.44 
L 59.244545 253.44 
L 59.244545 252.035362 
L 51.586364 252.035362 
z
" clip-path="url(#p30552d2bf9)" style="fill: #808080"/>
   </g>
   <g id="patch_4">
    <path d="M 61.159091 253.44 
L 68.817273 253.44 
L 68.817273 250.548099 
L 61.159091 250.548099 
z
" clip-path="url(#p30552d2bf9)" style="fill: #808080"/>
   </g>
   <g id="patch_5">
    <path d="M 70.731818 253.44 
L 78.39 253.44 
L 78.39 248.689019 
L 70.731818 248.689019 
z
" clip-path="url(#p30552d2bf9)" style="fill: #808080"/>
   </g>
   <g id="patch_6">
    <path d="M 80.304545 253.44 
L 87.962727 253.44 
L 87.962727 246.912566 
L 80.304545 246.912566 
z
" clip-path="url(#p30552d2bf9)" style="fill: #808080"/>
   </g>
   <g id="patch_7">
    <path d="M 89.877273 253.44 
L 97.535455 253.44 
L 97.535455 242.450775 
L 89.877273 242.450775 
z
" clip-path="url(#p30552d2bf9)" style="fill: #808080"/>
   </g>
   <g id="patch_8">
    <path d="M 99.45 253.44 
L 107.108182 253.44 
L 107.108182 235.758089 
L 99.45 235.758089 
z
" clip-path="url(#p30552d2bf9)" style="fill: #808080"/>
   </g>
   <g id="patch_9">
    <path d="M 109.022727 253.44 
L 116.680909 253.44 
L 116.680909 224.066546 
L 109.022727 224.066546 
z
" clip-path="url(#p30552d2bf9)" style="fill: #808080"/>
   </g>
   <g id="patch_10">
    <path d="M 118.595455 253.44 
L 126.253636 253.44 
L 126.253636 215.22559 
L 118.595455 215.22559 
z
" clip-path="url(#p30552d2bf9)" style="fill: #808080"/>
   </g>
   <g id="patch_11">
    <path d="M 128.168182 253.44 
L 135.826364 253.44 
L 135.826364 203.823237 
L 128.168182 203.823237 
z
" clip-path="url(#p30552d2bf9)" style="fill: #808080"/>
   </g>
   <g id="patch_12">
    <path d="M 137.740909 253.44 
L 145.399091 253.44 
L 145.399091 178.291879 
L 137.740909 178.291879 
z
" clip-path="url(#p30552d2bf9)" style="fill: #808080"/>
   </g>
   <g id="patch_13">
    <path d="M 147.313636 253.44 
L 154.971818 253.44 
L 154.971818 124.791706 
L 147.313636 124.791706 
z
" clip-path="url(#p30552d2bf9)" style="fill: #808080"/>
   </g>
   <g id="patch_14">
    <path d="M 156.886364 253.44 
L 164.544545 253.44 
L 164.544545 116.157315 
L 156.886364 116.157315 
z
" clip-path="url(#p30552d2bf9)" style="fill: #808080"/>
   </g>
   <g id="patch_15">
    <path d="M 166.459091 253.44 
L 174.117273 253.44 
L 174.117273 49.684898 
L 166.459091 49.684898 
z
" clip-path="url(#p30552d2bf9)" style="fill: #808080"/>
   </g>
   <g id="patch_16">
    <path d="M 176.031818 253.44 
L 183.69 253.44 
L 183.69 80.628242 
L 176.031818 80.628242 
z
" clip-path="url(#p30552d2bf9)" style="fill: #808080"/>
   </g>
   <g id="patch_17">
    <path d="M 185.604545 253.44 
L 193.262727 253.44 
L 193.262727 86.370731 
L 185.604545 86.370731 
z
" clip-path="url(#p30552d2bf9)" style="fill: #808080"/>
   </g>
   <g id="patch_18">
    <path d="M 195.177273 253.44 
L 202.835455 253.44 
L 202.835455 87.816682 
L 195.177273 87.816682 
z
" clip-path="url(#p30552d2bf9)" style="fill: #808080"/>
   </g>
   <g id="patch_19">
    <path d="M 204.75 253.44 
L 212.408182 253.44 
L 212.408182 97.318643 
L 204.75 97.318643 
z
" clip-path="url(#p30552d2bf9)" style="fill: #808080"/>
   </g>
   <g id="patch_20">
    <path d="M 214.322727 253.44 
L 221.980909 253.44 
L 221.980909 118.553461 
L 214.322727 118.553461 
z
" clip-path="url(#p30552d2bf9)" style="fill: #808080"/>
   </g>
   <g id="patch_21">
    <path d="M 223.895455 253.44 
L 231.553636 253.44 
L 231.553636 148.092167 
L 223.895455 148.092167 
z
" clip-path="url(#p30552d2bf9)" style="fill: #808080"/>
   </g>
   <g id="patch_22">
    <path d="M 233.468182 253.44 
L 241.126364 253.44 
L 241.126364 166.724274 
L 233.468182 166.724274 
z
" clip-path="url(#p30552d2bf9)" style="fill: #808080"/>
   </g>
   <g id="patch_23">
    <path d="M 243.040909 253.44 
L 250.699091 253.44 
L 250.699091 191.470687 
L 243.040909 191.470687 
z
" clip-path="url(#p30552d2bf9)" style="fill: #808080"/>
   </g>
   <g id="patch_24">
    <path d="M 252.613636 253.44 
L 260.271818 253.44 
L 260.271818 205.393126 
L 252.613636 205.393126 
z
" clip-path="url(#p30552d2bf9)" style="fill: #808080"/>
   </g>
   <g id="patch_25">
    <path d="M 262.186364 253.44 
L 269.844545 253.44 
L 269.844545 218.571933 
L 262.186364 218.571933 
z
" clip-path="url(#p30552d2bf9)" style="fill: #808080"/>
   </g>
   <g id="patch_26">
    <path d="M 271.759091 253.44 
L 279.417273 253.44 
L 279.417273 223.942607 
L 271.759091 223.942607 
z
" clip-path="url(#p30552d2bf9)" style="fill: #808080"/>
   </g>
   <g id="patch_27">
    <path d="M 281.331818 253.44 
L 288.99 253.44 
L 288.99 228.982778 
L 281.331818 228.982778 
z
" clip-path="url(#p30552d2bf9)" style="fill: #808080"/>
   </g>
   <g id="patch_28">
    <path d="M 290.904545 253.44 
L 298.562727 253.44 
L 298.562727 235.964654 
L 290.904545 235.964654 
z
" clip-path="url(#p30552d2bf9)" style="fill: #808080"/>
   </g>
   <g id="patch_29">
    <path d="M 300.477273 253.44 
L 308.135455 253.44 
L 308.135455 240.178567 
L 300.477273 240.178567 
z
" clip-path="url(#p30552d2bf9)" style="fill: #808080"/>
   </g>
   <g id="patch_30">
    <path d="M 310.05 253.44 
L 317.708182 253.44 
L 317.708182 242.616027 
L 310.05 242.616027 
z
" clip-path="url(#p30552d2bf9)" style="fill: #808080"/>
   </g>
   <g id="patch_31">
    <path d="M 319.622727 253.44 
L 327.280909 253.44 
L 327.280909 246.003682 
L 319.622727 246.003682 
z
" clip-path="url(#p30552d2bf9)" style="fill: #808080"/>
   </g>
   <g id="patch_32">
    <path d="M 329.195455 253.44 
L 336.853636 253.44 
L 336.853636 248.689019 
L 329.195455 248.689019 
z
" clip-path="url(#p30552d2bf9)" style="fill: #808080"/>
   </g>
   <g id="patch_33">
    <path d="M 338.768182 253.44 
L 346.426364 253.44 
L 346.426364 250.878602 
L 338.768182 250.878602 
z
" clip-path="url(#p30552d2bf9)" style="fill: #808080"/>
   </g>
   <g id="patch_34">
    <path d="M 348.340909 253.44 
L 355.999091 253.44 
L 355.999091 252.531117 
L 348.340909 252.531117 
z
" clip-path="url(#p30552d2bf9)" style="fill: #808080"/>
   </g>
   <g id="patch_35">
    <path d="M 357.913636 253.44 
L 365.571818 253.44 
L 365.571818 253.274748 
L 357.913636 253.274748 
z
" clip-path="url(#p30552d2bf9)" style="fill: #808080"/>
   </g>
   <g id="patch_36">
    <path d="M 367.486364 253.44 
L 375.144545 253.44 
L 375.144545 253.316061 
L 367.486364 253.316061 
z
" clip-path="url(#p30552d2bf9)" style="fill: #808080"/>
   </g>
   <g id="patch_37">
    <path d="M 377.059091 253.44 
L 384.717273 253.44 
L 384.717273 253.44 
L 377.059091 253.44 
z
" clip-path="url(#p30552d2bf9)" style="fill: #808080"/>
   </g>
   <g id="patch_38">
    <path d="M 386.631818 253.44 
L 394.29 253.44 
L 394.29 253.44 
L 386.631818 253.44 
z
" clip-path="url(#p30552d2bf9)" style="fill: #808080"/>
   </g>
   <g id="patch_39">
    <path d="M 396.204545 253.44 
L 403.862727 253.44 
L 403.862727 253.44 
L 396.204545 253.44 
z
" clip-path="url(#p30552d2bf9)" style="fill: #808080"/>
   </g>
   <g id="patch_40">
    <path d="M 405.777273 253.44 
L 413.435455 253.44 
L 413.435455 253.44 
L 405.777273 253.44 
z
" clip-path="url(#p30552d2bf9)" style="fill: #808080"/>
   </g>
   <g id="patch_41">
    <path d="M 415.35 253.44 
L 423.008182 253.44 
L 423.008182 253.44 
L 415.35 253.44 
z
" clip-path="url(#p30552d2bf9)" style="fill: #808080"/>
   </g>
   <g id="matplotlib.axis_1">
    <g id="xtick_1">
     <g id="line2d_1">
      <path d="M 46.8 253.44 
L 46.8 28.8 
" clip-path="url(#p30552d2bf9)" style="fill: none; stroke: #b0b0b0; stroke-width: 0.8; stroke-linecap: square"/>
     </g>
     <g id="line2d_2">
      <defs>
       <path id="mff8f363f92" d="M 0 0 
L 0 3.5 
" style="stroke: #000000; stroke-width: 0.8"/>
      </defs>
      <g>
       <use xlink:href="#mff8f363f92" x="46.8" y="253.44" style="stroke: #000000; stroke-width: 0.8"/>
      </g>
     </g>
     <g id="text_1">
      <!-- −5 -->
      <g transform="translate(39.352656 270.16125) scale(0.14 -0.14)">
       <defs>
        <path id="TimesNewRomanPSMT-2212" d="M 3484 2000 
L 116 2000 
L 116 2256 
L 3484 2256 
L 3484 2000 
z
" transform="scale(0.015625)"/>
        <path id="TimesNewRomanPSMT-35" d="M 2778 4238 
L 2534 3706 
L 1259 3706 
L 981 3138 
Q 1809 3016 2294 2522 
Q 2709 2097 2709 1522 
Q 2709 1188 2573 903 
Q 2438 619 2231 419 
Q 2025 219 1772 97 
Q 1413 -75 1034 -75 
Q 653 -75 479 54 
Q 306 184 306 341 
Q 306 428 378 495 
Q 450 563 559 563 
Q 641 563 702 538 
Q 763 513 909 409 
Q 1144 247 1384 247 
Q 1750 247 2026 523 
Q 2303 800 2303 1197 
Q 2303 1581 2056 1914 
Q 1809 2247 1375 2428 
Q 1034 2569 447 2591 
L 1259 4238 
L 2778 4238 
z
" transform="scale(0.015625)"/>
       </defs>
       <use xlink:href="#TimesNewRomanPSMT-2212"/>
       <use xlink:href="#TimesNewRomanPSMT-35" x="56.396484"/>
      </g>
     </g>
    </g>
    <g id="xtick_2">
     <g id="line2d_3">
      <path d="M 94.663636 253.44 
L 94.663636 28.8 
" clip-path="url(#p30552d2bf9)" style="fill: none; stroke: #b0b0b0; stroke-width: 0.8; stroke-linecap: square"/>
     </g>
     <g id="line2d_4">
      <g>
       <use xlink:href="#mff8f363f92" x="94.663636" y="253.44" style="stroke: #000000; stroke-width: 0.8"/>
      </g>
     </g>
     <g id="text_2">
      <!-- −4 -->
      <g transform="translate(87.216293 270.16125) scale(0.14 -0.14)">
       <defs>
        <path id="TimesNewRomanPSMT-34" d="M 2978 1563 
L 2978 1119 
L 2409 1119 
L 2409 0 
L 1894 0 
L 1894 1119 
L 100 1119 
L 100 1519 
L 2066 4325 
L 2409 4325 
L 2409 1563 
L 2978 1563 
z
M 1894 1563 
L 1894 3666 
L 406 1563 
L 1894 1563 
z
" transform="scale(0.015625)"/>
       </defs>
       <use xlink:href="#TimesNewRomanPSMT-2212"/>
       <use xlink:href="#TimesNewRomanPSMT-34" x="56.396484"/>
      </g>
     </g>
    </g>
    <g id="xtick_3">
     <g id="line2d_5">
      <path d="M 142.527273 253.44 
L 142.527273 28.8 
" clip-path="url(#p30552d2bf9)" style="fill: none; stroke: #b0b0b0; stroke-width: 0.8; stroke-linecap: square"/>
     </g>
     <g id="line2d_6">
      <g>
       <use xlink:href="#mff8f363f92" x="142.527273" y="253.44" style="stroke: #000000; stroke-width: 0.8"/>
      </g>
     </g>
     <g id="text_3">
      <!-- −3 -->
      <g transform="translate(135.079929 270.16125) scale(0.14 -0.14)">
       <defs>
        <path id="TimesNewRomanPSMT-33" d="M 325 3431 
Q 506 3859 782 4092 
Q 1059 4325 1472 4325 
Q 1981 4325 2253 3994 
Q 2459 3747 2459 3466 
Q 2459 3003 1878 2509 
Q 2269 2356 2469 2072 
Q 2669 1788 2669 1403 
Q 2669 853 2319 450 
Q 1863 -75 997 -75 
Q 569 -75 414 31 
Q 259 138 259 259 
Q 259 350 332 419 
Q 406 488 509 488 
Q 588 488 669 463 
Q 722 447 909 348 
Q 1097 250 1169 231 
Q 1284 197 1416 197 
Q 1734 197 1970 444 
Q 2206 691 2206 1028 
Q 2206 1275 2097 1509 
Q 2016 1684 1919 1775 
Q 1784 1900 1550 2001 
Q 1316 2103 1072 2103 
L 972 2103 
L 972 2197 
Q 1219 2228 1467 2375 
Q 1716 2522 1828 2728 
Q 1941 2934 1941 3181 
Q 1941 3503 1739 3701 
Q 1538 3900 1238 3900 
Q 753 3900 428 3381 
L 325 3431 
z
" transform="scale(0.015625)"/>
       </defs>
       <use xlink:href="#TimesNewRomanPSMT-2212"/>
       <use xlink:href="#TimesNewRomanPSMT-33" x="56.396484"/>
      </g>
     </g>
    </g>
    <g id="xtick_4">
     <g id="line2d_7">
      <path d="M 190.390909 253.44 
L 190.390909 28.8 
" clip-path="url(#p30552d2bf9)" style="fill: none; stroke: #b0b0b0; stroke-width: 0.8; stroke-linecap: square"/>
     </g>
     <g id="line2d_8">
      <g>
       <use xlink:href="#mff8f363f92" x="190.390909" y="253.44" style="stroke: #000000; stroke-width: 0.8"/>
      </g>
     </g>
     <g id="text_4">
      <!-- −2 -->
      <g transform="translate(182.943565 270.16125) scale(0.14 -0.14)">
       <defs>
        <path id="TimesNewRomanPSMT-32" d="M 2934 816 
L 2638 0 
L 138 0 
L 138 116 
Q 1241 1122 1691 1759 
Q 2141 2397 2141 2925 
Q 2141 3328 1894 3587 
Q 1647 3847 1303 3847 
Q 991 3847 742 3664 
Q 494 3481 375 3128 
L 259 3128 
Q 338 3706 661 4015 
Q 984 4325 1469 4325 
Q 1984 4325 2329 3994 
Q 2675 3663 2675 3213 
Q 2675 2891 2525 2569 
Q 2294 2063 1775 1497 
Q 997 647 803 472 
L 1909 472 
Q 2247 472 2383 497 
Q 2519 522 2628 598 
Q 2738 675 2819 816 
L 2934 816 
z
" transform="scale(0.015625)"/>
       </defs>
       <use xlink:href="#TimesNewRomanPSMT-2212"/>
       <use xlink:href="#TimesNewRomanPSMT-32" x="56.396484"/>
      </g>
     </g>
    </g>
    <g id="xtick_5">
     <g id="line2d_9">
      <path d="M 238.254545 253.44 
L 238.254545 28.8 
" clip-path="url(#p30552d2bf9)" style="fill: none; stroke: #b0b0b0; stroke-width: 0.8; stroke-linecap: square"/>
     </g>
     <g id="line2d_10">
      <g>
       <use xlink:href="#mff8f363f92" x="238.254545" y="253.44" style="stroke: #000000; stroke-width: 0.8"/>
      </g>
     </g>
     <g id="text_5">
      <!-- −1 -->
      <g transform="translate(230.807202 270.16125) scale(0.14 -0.14)">
       <defs>
        <path id="TimesNewRomanPSMT-31" d="M 750 3822 
L 1781 4325 
L 1884 4325 
L 1884 747 
Q 1884 391 1914 303 
Q 1944 216 2037 169 
Q 2131 122 2419 116 
L 2419 0 
L 825 0 
L 825 116 
Q 1125 122 1212 167 
Q 1300 213 1334 289 
Q 1369 366 1369 747 
L 1369 3034 
Q 1369 3497 1338 3628 
Q 1316 3728 1258 3775 
Q 1200 3822 1119 3822 
Q 1003 3822 797 3725 
L 750 3822 
z
" transform="scale(0.015625)"/>
       </defs>
       <use xlink:href="#TimesNewRomanPSMT-2212"/>
       <use xlink:href="#TimesNewRomanPSMT-31" x="56.396484"/>
      </g>
     </g>
    </g>
    <g id="xtick_6">
     <g id="line2d_11">
      <path d="M 286.118182 253.44 
L 286.118182 28.8 
" clip-path="url(#p30552d2bf9)" style="fill: none; stroke: #b0b0b0; stroke-width: 0.8; stroke-linecap: square"/>
     </g>
     <g id="line2d_12">
      <g>
       <use xlink:href="#mff8f363f92" x="286.118182" y="253.44" style="stroke: #000000; stroke-width: 0.8"/>
      </g>
     </g>
     <g id="text_6">
      <!-- 0 -->
      <g transform="translate(282.618182 270.16125) scale(0.14 -0.14)">
       <defs>
        <path id="TimesNewRomanPSMT-30" d="M 231 2094 
Q 231 2819 450 3342 
Q 669 3866 1031 4122 
Q 1313 4325 1613 4325 
Q 2100 4325 2488 3828 
Q 2972 3213 2972 2159 
Q 2972 1422 2759 906 
Q 2547 391 2217 158 
Q 1888 -75 1581 -75 
Q 975 -75 572 641 
Q 231 1244 231 2094 
z
M 844 2016 
Q 844 1141 1059 588 
Q 1238 122 1591 122 
Q 1759 122 1940 273 
Q 2122 425 2216 781 
Q 2359 1319 2359 2297 
Q 2359 3022 2209 3506 
Q 2097 3866 1919 4016 
Q 1791 4119 1609 4119 
Q 1397 4119 1231 3928 
Q 1006 3669 925 3112 
Q 844 2556 844 2016 
z
" transform="scale(0.015625)"/>
       </defs>
       <use xlink:href="#TimesNewRomanPSMT-30"/>
      </g>
     </g>
    </g>
    <g id="xtick_7">
     <g id="line2d_13">
      <path d="M 333.981818 253.44 
L 333.981818 28.8 
" clip-path="url(#p30552d2bf9)" style="fill: none; stroke: #b0b0b0; stroke-width: 0.8; stroke-linecap: square"/>
     </g>
     <g id="line2d_14">
      <g>
       <use xlink:href="#mff8f363f92" x="333.981818" y="253.44" style="stroke: #000000; stroke-width: 0.8"/>
      </g>
     </g>
     <g id="text_7">
      <!-- 1 -->
      <g transform="translate(330.481818 270.16125) scale(0.14 -0.14)">
       <use xlink:href="#TimesNewRomanPSMT-31"/>
      </g>
     </g>
    </g>
    <g id="xtick_8">
     <g id="line2d_15">
      <path d="M 381.845455 253.44 
L 381.845455 28.8 
" clip-path="url(#p30552d2bf9)" style="fill: none; stroke: #b0b0b0; stroke-width: 0.8; stroke-linecap: square"/>
     </g>
     <g id="line2d_16">
      <g>
       <use xlink:href="#mff8f363f92" x="381.845455" y="253.44" style="stroke: #000000; stroke-width: 0.8"/>
      </g>
     </g>
     <g id="text_8">
      <!-- 2 -->
      <g transform="translate(378.345455 270.16125) scale(0.14 -0.14)">
       <use xlink:href="#TimesNewRomanPSMT-32"/>
      </g>
     </g>
    </g>
    <g id="xtick_9">
     <g id="line2d_17">
      <path d="M 429.709091 253.44 
L 429.709091 28.8 
" clip-path="url(#p30552d2bf9)" style="fill: none; stroke: #b0b0b0; stroke-width: 0.8; stroke-linecap: square"/>
     </g>
     <g id="line2d_18">
      <g>
       <use xlink:href="#mff8f363f92" x="429.709091" y="253.44" style="stroke: #000000; stroke-width: 0.8"/>
      </g>
     </g>
     <g id="text_9">
      <!-- 3 -->
      <g transform="translate(426.209091 270.16125) scale(0.14 -0.14)">
       <use xlink:href="#TimesNewRomanPSMT-33"/>
      </g>
     </g>
    </g>
    <g id="text_10">
     <!-- log Rescaled Distance, log$_{10} R$ -->
     <g transform="translate(152.224545 287.375938) scale(0.14 -0.14)">
      <defs>
       <path id="TimesNewRomanPSMT-6c" d="M 1184 4444 
L 1184 647 
Q 1184 378 1223 290 
Q 1263 203 1344 158 
Q 1425 113 1647 113 
L 1647 0 
L 244 0 
L 244 113 
Q 441 113 512 153 
Q 584 194 625 287 
Q 666 381 666 647 
L 666 3247 
Q 666 3731 644 3842 
Q 622 3953 573 3993 
Q 525 4034 450 4034 
Q 369 4034 244 3984 
L 191 4094 
L 1044 4444 
L 1184 4444 
z
" transform="scale(0.015625)"/>
       <path id="TimesNewRomanPSMT-6f" d="M 1600 2947 
Q 2250 2947 2644 2453 
Q 2978 2031 2978 1484 
Q 2978 1100 2793 706 
Q 2609 313 2286 112 
Q 1963 -88 1566 -88 
Q 919 -88 538 428 
Q 216 863 216 1403 
Q 216 1797 411 2186 
Q 606 2575 925 2761 
Q 1244 2947 1600 2947 
z
M 1503 2744 
Q 1338 2744 1170 2645 
Q 1003 2547 900 2300 
Q 797 2053 797 1666 
Q 797 1041 1045 587 
Q 1294 134 1700 134 
Q 2003 134 2200 384 
Q 2397 634 2397 1244 
Q 2397 2006 2069 2444 
Q 1847 2744 1503 2744 
z
" transform="scale(0.015625)"/>
       <path id="TimesNewRomanPSMT-67" d="M 966 1044 
Q 703 1172 562 1401 
Q 422 1631 422 1909 
Q 422 2334 742 2640 
Q 1063 2947 1563 2947 
Q 1972 2947 2272 2747 
L 2878 2747 
Q 3013 2747 3034 2739 
Q 3056 2731 3066 2713 
Q 3084 2684 3084 2613 
Q 3084 2531 3069 2500 
Q 3059 2484 3036 2475 
Q 3013 2466 2878 2466 
L 2506 2466 
Q 2681 2241 2681 1891 
Q 2681 1491 2375 1206 
Q 2069 922 1553 922 
Q 1341 922 1119 984 
Q 981 866 932 777 
Q 884 688 884 625 
Q 884 572 936 522 
Q 988 472 1138 450 
Q 1225 438 1575 428 
Q 2219 413 2409 384 
Q 2700 344 2873 169 
Q 3047 -6 3047 -263 
Q 3047 -616 2716 -925 
Q 2228 -1381 1444 -1381 
Q 841 -1381 425 -1109 
Q 191 -953 191 -784 
Q 191 -709 225 -634 
Q 278 -519 444 -313 
Q 466 -284 763 25 
Q 600 122 533 198 
Q 466 275 466 372 
Q 466 481 555 628 
Q 644 775 966 1044 
z
M 1509 2797 
Q 1278 2797 1122 2612 
Q 966 2428 966 2047 
Q 966 1553 1178 1281 
Q 1341 1075 1591 1075 
Q 1828 1075 1981 1253 
Q 2134 1431 2134 1813 
Q 2134 2309 1919 2591 
Q 1759 2797 1509 2797 
z
M 934 0 
Q 788 -159 713 -296 
Q 638 -434 638 -550 
Q 638 -700 819 -813 
Q 1131 -1006 1722 -1006 
Q 2284 -1006 2551 -807 
Q 2819 -609 2819 -384 
Q 2819 -222 2659 -153 
Q 2497 -84 2016 -72 
Q 1313 -53 934 0 
z
" transform="scale(0.015625)"/>
       <path id="TimesNewRomanPSMT-20" transform="scale(0.015625)"/>
       <path id="TimesNewRomanPSMT-52" d="M 4325 0 
L 3194 0 
L 1759 1981 
Q 1600 1975 1500 1975 
Q 1459 1975 1412 1976 
Q 1366 1978 1316 1981 
L 1316 750 
Q 1316 350 1403 253 
Q 1522 116 1759 116 
L 1925 116 
L 1925 0 
L 109 0 
L 109 116 
L 269 116 
Q 538 116 653 291 
Q 719 388 719 750 
L 719 3488 
Q 719 3888 631 3984 
Q 509 4122 269 4122 
L 109 4122 
L 109 4238 
L 1653 4238 
Q 2328 4238 2648 4139 
Q 2969 4041 3192 3777 
Q 3416 3513 3416 3147 
Q 3416 2756 3161 2468 
Q 2906 2181 2372 2063 
L 3247 847 
Q 3547 428 3762 290 
Q 3978 153 4325 116 
L 4325 0 
z
M 1316 2178 
Q 1375 2178 1419 2176 
Q 1463 2175 1491 2175 
Q 2097 2175 2405 2437 
Q 2713 2700 2713 3106 
Q 2713 3503 2464 3751 
Q 2216 4000 1806 4000 
Q 1625 4000 1316 3941 
L 1316 2178 
z
" transform="scale(0.015625)"/>
       <path id="TimesNewRomanPSMT-65" d="M 681 1784 
Q 678 1147 991 784 
Q 1303 422 1725 422 
Q 2006 422 2214 576 
Q 2422 731 2563 1106 
L 2659 1044 
Q 2594 616 2278 264 
Q 1963 -88 1488 -88 
Q 972 -88 605 314 
Q 238 716 238 1394 
Q 238 2128 614 2539 
Q 991 2950 1559 2950 
Q 2041 2950 2350 2633 
Q 2659 2316 2659 1784 
L 681 1784 
z
M 681 1966 
L 2006 1966 
Q 1991 2241 1941 2353 
Q 1863 2528 1708 2628 
Q 1553 2728 1384 2728 
Q 1125 2728 920 2526 
Q 716 2325 681 1966 
z
" transform="scale(0.015625)"/>
       <path id="TimesNewRomanPSMT-73" d="M 2050 2947 
L 2050 1972 
L 1947 1972 
Q 1828 2431 1642 2597 
Q 1456 2763 1169 2763 
Q 950 2763 815 2647 
Q 681 2531 681 2391 
Q 681 2216 781 2091 
Q 878 1963 1175 1819 
L 1631 1597 
Q 2266 1288 2266 781 
Q 2266 391 1970 151 
Q 1675 -88 1309 -88 
Q 1047 -88 709 6 
Q 606 38 541 38 
Q 469 38 428 -44 
L 325 -44 
L 325 978 
L 428 978 
Q 516 541 762 319 
Q 1009 97 1316 97 
Q 1531 97 1667 223 
Q 1803 350 1803 528 
Q 1803 744 1651 891 
Q 1500 1038 1047 1263 
Q 594 1488 453 1669 
Q 313 1847 313 2119 
Q 313 2472 555 2709 
Q 797 2947 1181 2947 
Q 1350 2947 1591 2875 
Q 1750 2828 1803 2828 
Q 1853 2828 1881 2850 
Q 1909 2872 1947 2947 
L 2050 2947 
z
" transform="scale(0.015625)"/>
       <path id="TimesNewRomanPSMT-63" d="M 2631 1088 
Q 2516 522 2178 217 
Q 1841 -88 1431 -88 
Q 944 -88 581 321 
Q 219 731 219 1428 
Q 219 2103 620 2525 
Q 1022 2947 1584 2947 
Q 2006 2947 2278 2723 
Q 2550 2500 2550 2259 
Q 2550 2141 2473 2067 
Q 2397 1994 2259 1994 
Q 2075 1994 1981 2113 
Q 1928 2178 1911 2362 
Q 1894 2547 1784 2644 
Q 1675 2738 1481 2738 
Q 1169 2738 978 2506 
Q 725 2200 725 1697 
Q 725 1184 976 792 
Q 1228 400 1656 400 
Q 1963 400 2206 609 
Q 2378 753 2541 1131 
L 2631 1088 
z
" transform="scale(0.015625)"/>
       <path id="TimesNewRomanPSMT-61" d="M 1822 413 
Q 1381 72 1269 19 
Q 1100 -59 909 -59 
Q 613 -59 420 144 
Q 228 347 228 678 
Q 228 888 322 1041 
Q 450 1253 767 1440 
Q 1084 1628 1822 1897 
L 1822 2009 
Q 1822 2438 1686 2597 
Q 1550 2756 1291 2756 
Q 1094 2756 978 2650 
Q 859 2544 859 2406 
L 866 2225 
Q 866 2081 792 2003 
Q 719 1925 600 1925 
Q 484 1925 411 2006 
Q 338 2088 338 2228 
Q 338 2497 613 2722 
Q 888 2947 1384 2947 
Q 1766 2947 2009 2819 
Q 2194 2722 2281 2516 
Q 2338 2381 2338 1966 
L 2338 994 
Q 2338 584 2353 492 
Q 2369 400 2405 369 
Q 2441 338 2488 338 
Q 2538 338 2575 359 
Q 2641 400 2828 588 
L 2828 413 
Q 2478 -56 2159 -56 
Q 2006 -56 1915 50 
Q 1825 156 1822 413 
z
M 1822 616 
L 1822 1706 
Q 1350 1519 1213 1441 
Q 966 1303 859 1153 
Q 753 1003 753 825 
Q 753 600 887 451 
Q 1022 303 1197 303 
Q 1434 303 1822 616 
z
" transform="scale(0.015625)"/>
       <path id="TimesNewRomanPSMT-64" d="M 2222 322 
Q 2013 103 1813 7 
Q 1613 -88 1381 -88 
Q 913 -88 563 304 
Q 213 697 213 1313 
Q 213 1928 600 2439 
Q 988 2950 1597 2950 
Q 1975 2950 2222 2709 
L 2222 3238 
Q 2222 3728 2198 3840 
Q 2175 3953 2125 3993 
Q 2075 4034 2000 4034 
Q 1919 4034 1784 3984 
L 1744 4094 
L 2597 4444 
L 2738 4444 
L 2738 1134 
Q 2738 631 2761 520 
Q 2784 409 2836 365 
Q 2888 322 2956 322 
Q 3041 322 3181 375 
L 3216 266 
L 2366 -88 
L 2222 -88 
L 2222 322 
z
M 2222 541 
L 2222 2016 
Q 2203 2228 2109 2403 
Q 2016 2578 1861 2667 
Q 1706 2756 1559 2756 
Q 1284 2756 1069 2509 
Q 784 2184 784 1559 
Q 784 928 1059 592 
Q 1334 256 1672 256 
Q 1956 256 2222 541 
z
" transform="scale(0.015625)"/>
       <path id="TimesNewRomanPSMT-44" d="M 109 0 
L 109 116 
L 269 116 
Q 538 116 650 288 
Q 719 391 719 750 
L 719 3488 
Q 719 3884 631 3984 
Q 509 4122 269 4122 
L 109 4122 
L 109 4238 
L 1834 4238 
Q 2784 4238 3279 4022 
Q 3775 3806 4076 3303 
Q 4378 2800 4378 2141 
Q 4378 1256 3841 663 
Q 3238 0 2003 0 
L 109 0 
z
M 1319 306 
Q 1716 219 1984 219 
Q 2709 219 3187 728 
Q 3666 1238 3666 2109 
Q 3666 2988 3187 3494 
Q 2709 4000 1959 4000 
Q 1678 4000 1319 3909 
L 1319 306 
z
" transform="scale(0.015625)"/>
       <path id="TimesNewRomanPSMT-69" d="M 928 4444 
Q 1059 4444 1151 4351 
Q 1244 4259 1244 4128 
Q 1244 3997 1151 3903 
Q 1059 3809 928 3809 
Q 797 3809 703 3903 
Q 609 3997 609 4128 
Q 609 4259 701 4351 
Q 794 4444 928 4444 
z
M 1188 2947 
L 1188 647 
Q 1188 378 1227 289 
Q 1266 200 1342 156 
Q 1419 113 1622 113 
L 1622 0 
L 231 0 
L 231 113 
Q 441 113 512 153 
Q 584 194 626 287 
Q 669 381 669 647 
L 669 1750 
Q 669 2216 641 2353 
Q 619 2453 572 2492 
Q 525 2531 444 2531 
Q 356 2531 231 2484 
L 188 2597 
L 1050 2947 
L 1188 2947 
z
" transform="scale(0.015625)"/>
       <path id="TimesNewRomanPSMT-74" d="M 1031 3803 
L 1031 2863 
L 1700 2863 
L 1700 2644 
L 1031 2644 
L 1031 788 
Q 1031 509 1111 412 
Q 1191 316 1316 316 
Q 1419 316 1516 380 
Q 1613 444 1666 569 
L 1788 569 
Q 1678 263 1478 108 
Q 1278 -47 1066 -47 
Q 922 -47 784 33 
Q 647 113 581 261 
Q 516 409 516 719 
L 516 2644 
L 63 2644 
L 63 2747 
Q 234 2816 414 2980 
Q 594 3144 734 3369 
Q 806 3488 934 3803 
L 1031 3803 
z
" transform="scale(0.015625)"/>
       <path id="TimesNewRomanPSMT-6e" d="M 1034 2341 
Q 1538 2947 1994 2947 
Q 2228 2947 2397 2830 
Q 2566 2713 2666 2444 
Q 2734 2256 2734 1869 
L 2734 647 
Q 2734 375 2778 278 
Q 2813 200 2889 156 
Q 2966 113 3172 113 
L 3172 0 
L 1756 0 
L 1756 113 
L 1816 113 
Q 2016 113 2095 173 
Q 2175 234 2206 353 
Q 2219 400 2219 647 
L 2219 1819 
Q 2219 2209 2117 2386 
Q 2016 2563 1775 2563 
Q 1403 2563 1034 2156 
L 1034 647 
Q 1034 356 1069 288 
Q 1113 197 1189 155 
Q 1266 113 1500 113 
L 1500 0 
L 84 0 
L 84 113 
L 147 113 
Q 366 113 442 223 
Q 519 334 519 647 
L 519 1709 
Q 519 2225 495 2337 
Q 472 2450 423 2490 
Q 375 2531 294 2531 
Q 206 2531 84 2484 
L 38 2597 
L 900 2947 
L 1034 2947 
L 1034 2341 
z
" transform="scale(0.015625)"/>
       <path id="TimesNewRomanPSMT-2c" d="M 344 -1066 
L 344 -928 
Q 666 -822 842 -598 
Q 1019 -375 1019 -125 
Q 1019 -66 991 -25 
Q 969 3 947 3 
Q 913 3 797 -59 
Q 741 -88 678 -88 
Q 525 -88 434 3 
Q 344 94 344 253 
Q 344 406 461 515 
Q 578 625 747 625 
Q 953 625 1114 445 
Q 1275 266 1275 -31 
Q 1275 -353 1051 -629 
Q 828 -906 344 -1066 
z
" transform="scale(0.015625)"/>
       <path id="DejaVuSans-31" d="M 794 531 
L 1825 531 
L 1825 4091 
L 703 3866 
L 703 4441 
L 1819 4666 
L 2450 4666 
L 2450 531 
L 3481 531 
L 3481 0 
L 794 0 
L 794 531 
z
" transform="scale(0.015625)"/>
       <path id="DejaVuSans-30" d="M 2034 4250 
Q 1547 4250 1301 3770 
Q 1056 3291 1056 2328 
Q 1056 1369 1301 889 
Q 1547 409 2034 409 
Q 2525 409 2770 889 
Q 3016 1369 3016 2328 
Q 3016 3291 2770 3770 
Q 2525 4250 2034 4250 
z
M 2034 4750 
Q 2819 4750 3233 4129 
Q 3647 3509 3647 2328 
Q 3647 1150 3233 529 
Q 2819 -91 2034 -91 
Q 1250 -91 836 529 
Q 422 1150 422 2328 
Q 422 3509 836 4129 
Q 1250 4750 2034 4750 
z
" transform="scale(0.015625)"/>
       <path id="DejaVuSans-Oblique-52" d="M 1613 4147 
L 1294 2491 
L 2106 2491 
Q 2584 2491 2879 2755 
Q 3175 3019 3175 3444 
Q 3175 3784 2976 3965 
Q 2778 4147 2406 4147 
L 1613 4147 
z
M 2772 2241 
Q 2972 2194 3105 2009 
Q 3238 1825 3413 1275 
L 3809 0 
L 3144 0 
L 2778 1197 
Q 2638 1659 2453 1815 
Q 2269 1972 1888 1972 
L 1191 1972 
L 806 0 
L 172 0 
L 1081 4666 
L 2503 4666 
Q 3150 4666 3495 4373 
Q 3841 4081 3841 3531 
Q 3841 3044 3547 2687 
Q 3253 2331 2772 2241 
z
" transform="scale(0.015625)"/>
      </defs>
      <use xlink:href="#TimesNewRomanPSMT-6c" transform="translate(0 0.09375)"/>
      <use xlink:href="#TimesNewRomanPSMT-6f" transform="translate(27.783203 0.09375)"/>
      <use xlink:href="#TimesNewRomanPSMT-67" transform="translate(77.783203 0.09375)"/>
      <use xlink:href="#TimesNewRomanPSMT-20" transform="translate(127.783203 0.09375)"/>
      <use xlink:href="#TimesNewRomanPSMT-52" transform="translate(152.783203 0.09375)"/>
      <use xlink:href="#TimesNewRomanPSMT-65" transform="translate(219.482422 0.09375)"/>
      <use xlink:href="#TimesNewRomanPSMT-73" transform="translate(263.867188 0.09375)"/>
      <use xlink:href="#TimesNewRomanPSMT-63" transform="translate(302.783203 0.09375)"/>
      <use xlink:href="#TimesNewRomanPSMT-61" transform="translate(347.167969 0.09375)"/>
      <use xlink:href="#TimesNewRomanPSMT-6c" transform="translate(391.552734 0.09375)"/>
      <use xlink:href="#TimesNewRomanPSMT-65" transform="translate(419.335938 0.09375)"/>
      <use xlink:href="#TimesNewRomanPSMT-64" transform="translate(463.720703 0.09375)"/>
      <use xlink:href="#TimesNewRomanPSMT-20" transform="translate(513.720703 0.09375)"/>
      <use xlink:href="#TimesNewRomanPSMT-44" transform="translate(538.720703 0.09375)"/>
      <use xlink:href="#TimesNewRomanPSMT-69" transform="translate(610.9375 0.09375)"/>
      <use xlink:href="#TimesNewRomanPSMT-73" transform="translate(638.720703 0.09375)"/>
      <use xlink:href="#TimesNewRomanPSMT-74" transform="translate(677.636719 0.09375)"/>
      <use xlink:href="#TimesNewRomanPSMT-61" transform="translate(705.419922 0.09375)"/>
      <use xlink:href="#TimesNewRomanPSMT-6e" transform="translate(749.804688 0.09375)"/>
      <use xlink:href="#TimesNewRomanPSMT-63" transform="translate(799.804688 0.09375)"/>
      <use xlink:href="#TimesNewRomanPSMT-65" transform="translate(844.189453 0.09375)"/>
      <use xlink:href="#TimesNewRomanPSMT-2c" transform="translate(888.574219 0.09375)"/>
      <use xlink:href="#TimesNewRomanPSMT-20" transform="translate(913.574219 0.09375)"/>
      <use xlink:href="#TimesNewRomanPSMT-6c" transform="translate(938.574219 0.09375)"/>
      <use xlink:href="#TimesNewRomanPSMT-6f" transform="translate(966.357422 0.09375)"/>
      <use xlink:href="#TimesNewRomanPSMT-67" transform="translate(1016.357422 0.09375)"/>
      <use xlink:href="#DejaVuSans-31" transform="translate(1067.314453 -16.3125) scale(0.7)"/>
      <use xlink:href="#DejaVuSans-30" transform="translate(1111.850586 -16.3125) scale(0.7)"/>
      <use xlink:href="#DejaVuSans-Oblique-52" transform="translate(1159.121094 0.09375)"/>
     </g>
    </g>
   </g>
   <g id="matplotlib.axis_2">
    <g id="ytick_1">
     <g id="line2d_19">
      <path d="M 46.8 253.44 
L 429.709091 253.44 
" clip-path="url(#p30552d2bf9)" style="fill: none; stroke: #b0b0b0; stroke-width: 0.8; stroke-linecap: square"/>
     </g>
     <g id="line2d_20">
      <defs>
       <path id="m65c4c33b62" d="M 0 0 
L -3.5 0 
" style="stroke: #000000; stroke-width: 0.8"/>
      </defs>
      <g>
       <use xlink:href="#m65c4c33b62" x="46.8" y="253.44" style="stroke: #000000; stroke-width: 0.8"/>
      </g>
     </g>
     <g id="text_11">
      <!-- 0.0 -->
      <g transform="translate(22.3 258.300625) scale(0.14 -0.14)">
       <defs>
        <path id="TimesNewRomanPSMT-2e" d="M 800 606 
Q 947 606 1047 504 
Q 1147 403 1147 259 
Q 1147 116 1045 14 
Q 944 -88 800 -88 
Q 656 -88 554 14 
Q 453 116 453 259 
Q 453 406 554 506 
Q 656 606 800 606 
z
" transform="scale(0.015625)"/>
       </defs>
       <use xlink:href="#TimesNewRomanPSMT-30"/>
       <use xlink:href="#TimesNewRomanPSMT-2e" x="50"/>
       <use xlink:href="#TimesNewRomanPSMT-30" x="75"/>
      </g>
     </g>
    </g>
    <g id="ytick_2">
     <g id="line2d_21">
      <path d="M 46.8 211.710691 
L 429.709091 211.710691 
" clip-path="url(#p30552d2bf9)" style="fill: none; stroke: #b0b0b0; stroke-width: 0.8; stroke-linecap: square"/>
     </g>
     <g id="line2d_22">
      <g>
       <use xlink:href="#m65c4c33b62" x="46.8" y="211.710691" style="stroke: #000000; stroke-width: 0.8"/>
      </g>
     </g>
     <g id="text_12">
      <!-- 0.1 -->
      <g transform="translate(22.3 216.571316) scale(0.14 -0.14)">
       <use xlink:href="#TimesNewRomanPSMT-30"/>
       <use xlink:href="#TimesNewRomanPSMT-2e" x="50"/>
       <use xlink:href="#TimesNewRomanPSMT-31" x="75"/>
      </g>
     </g>
    </g>
    <g id="ytick_3">
     <g id="line2d_23">
      <path d="M 46.8 169.981381 
L 429.709091 169.981381 
" clip-path="url(#p30552d2bf9)" style="fill: none; stroke: #b0b0b0; stroke-width: 0.8; stroke-linecap: square"/>
     </g>
     <g id="line2d_24">
      <g>
       <use xlink:href="#m65c4c33b62" x="46.8" y="169.981381" style="stroke: #000000; stroke-width: 0.8"/>
      </g>
     </g>
     <g id="text_13">
      <!-- 0.2 -->
      <g transform="translate(22.3 174.842006) scale(0.14 -0.14)">
       <use xlink:href="#TimesNewRomanPSMT-30"/>
       <use xlink:href="#TimesNewRomanPSMT-2e" x="50"/>
       <use xlink:href="#TimesNewRomanPSMT-32" x="75"/>
      </g>
     </g>
    </g>
    <g id="ytick_4">
     <g id="line2d_25">
      <path d="M 46.8 128.252072 
L 429.709091 128.252072 
" clip-path="url(#p30552d2bf9)" style="fill: none; stroke: #b0b0b0; stroke-width: 0.8; stroke-linecap: square"/>
     </g>
     <g id="line2d_26">
      <g>
       <use xlink:href="#m65c4c33b62" x="46.8" y="128.252072" style="stroke: #000000; stroke-width: 0.8"/>
      </g>
     </g>
     <g id="text_14">
      <!-- 0.3 -->
      <g transform="translate(22.3 133.112697) scale(0.14 -0.14)">
       <use xlink:href="#TimesNewRomanPSMT-30"/>
       <use xlink:href="#TimesNewRomanPSMT-2e" x="50"/>
       <use xlink:href="#TimesNewRomanPSMT-33" x="75"/>
      </g>
     </g>
    </g>
    <g id="ytick_5">
     <g id="line2d_27">
      <path d="M 46.8 86.522763 
L 429.709091 86.522763 
" clip-path="url(#p30552d2bf9)" style="fill: none; stroke: #b0b0b0; stroke-width: 0.8; stroke-linecap: square"/>
     </g>
     <g id="line2d_28">
      <g>
       <use xlink:href="#m65c4c33b62" x="46.8" y="86.522763" style="stroke: #000000; stroke-width: 0.8"/>
      </g>
     </g>
     <g id="text_15">
      <!-- 0.4 -->
      <g transform="translate(22.3 91.383388) scale(0.14 -0.14)">
       <use xlink:href="#TimesNewRomanPSMT-30"/>
       <use xlink:href="#TimesNewRomanPSMT-2e" x="50"/>
       <use xlink:href="#TimesNewRomanPSMT-34" x="75"/>
      </g>
     </g>
    </g>
    <g id="ytick_6">
     <g id="line2d_29">
      <path d="M 46.8 44.793453 
L 429.709091 44.793453 
" clip-path="url(#p30552d2bf9)" style="fill: none; stroke: #b0b0b0; stroke-width: 0.8; stroke-linecap: square"/>
     </g>
     <g id="line2d_30">
      <g>
       <use xlink:href="#m65c4c33b62" x="46.8" y="44.793453" style="stroke: #000000; stroke-width: 0.8"/>
      </g>
     </g>
     <g id="text_16">
      <!-- 0.5 -->
      <g transform="translate(22.3 49.654078) scale(0.14 -0.14)">
       <use xlink:href="#TimesNewRomanPSMT-30"/>
       <use xlink:href="#TimesNewRomanPSMT-2e" x="50"/>
       <use xlink:href="#TimesNewRomanPSMT-35" x="75"/>
      </g>
     </g>
    </g>
    <g id="text_17">
     <!-- Number of Events -->
     <g transform="translate(15.305312 192.440938) rotate(-90) scale(0.14 -0.14)">
      <defs>
       <path id="TimesNewRomanPSMT-4e" d="M -84 4238 
L 1066 4238 
L 3656 1059 
L 3656 3503 
Q 3656 3894 3569 3991 
Q 3453 4122 3203 4122 
L 3056 4122 
L 3056 4238 
L 4531 4238 
L 4531 4122 
L 4381 4122 
Q 4113 4122 4000 3959 
Q 3931 3859 3931 3503 
L 3931 -69 
L 3819 -69 
L 1025 3344 
L 1025 734 
Q 1025 344 1109 247 
Q 1228 116 1475 116 
L 1625 116 
L 1625 0 
L 150 0 
L 150 116 
L 297 116 
Q 569 116 681 278 
Q 750 378 750 734 
L 750 3681 
Q 566 3897 470 3965 
Q 375 4034 191 4094 
Q 100 4122 -84 4122 
L -84 4238 
z
" transform="scale(0.015625)"/>
       <path id="TimesNewRomanPSMT-75" d="M 2709 2863 
L 2709 1128 
Q 2709 631 2732 520 
Q 2756 409 2807 365 
Q 2859 322 2928 322 
Q 3025 322 3147 375 
L 3191 266 
L 2334 -88 
L 2194 -88 
L 2194 519 
Q 1825 119 1631 15 
Q 1438 -88 1222 -88 
Q 981 -88 804 51 
Q 628 191 559 409 
Q 491 628 491 1028 
L 491 2306 
Q 491 2509 447 2587 
Q 403 2666 317 2708 
Q 231 2750 6 2747 
L 6 2863 
L 1009 2863 
L 1009 947 
Q 1009 547 1148 422 
Q 1288 297 1484 297 
Q 1619 297 1789 381 
Q 1959 466 2194 703 
L 2194 2325 
Q 2194 2569 2105 2655 
Q 2016 2741 1734 2747 
L 1734 2863 
L 2709 2863 
z
" transform="scale(0.015625)"/>
       <path id="TimesNewRomanPSMT-6d" d="M 1050 2338 
Q 1363 2650 1419 2697 
Q 1559 2816 1721 2881 
Q 1884 2947 2044 2947 
Q 2313 2947 2506 2790 
Q 2700 2634 2766 2338 
Q 3088 2713 3309 2830 
Q 3531 2947 3766 2947 
Q 3994 2947 4170 2830 
Q 4347 2713 4450 2447 
Q 4519 2266 4519 1878 
L 4519 647 
Q 4519 378 4559 278 
Q 4591 209 4675 161 
Q 4759 113 4950 113 
L 4950 0 
L 3538 0 
L 3538 113 
L 3597 113 
Q 3781 113 3884 184 
Q 3956 234 3988 344 
Q 4000 397 4000 647 
L 4000 1878 
Q 4000 2228 3916 2372 
Q 3794 2572 3525 2572 
Q 3359 2572 3192 2489 
Q 3025 2406 2788 2181 
L 2781 2147 
L 2788 2013 
L 2788 647 
Q 2788 353 2820 281 
Q 2853 209 2943 161 
Q 3034 113 3253 113 
L 3253 0 
L 1806 0 
L 1806 113 
Q 2044 113 2133 169 
Q 2222 225 2256 338 
Q 2272 391 2272 647 
L 2272 1878 
Q 2272 2228 2169 2381 
Q 2031 2581 1784 2581 
Q 1616 2581 1450 2491 
Q 1191 2353 1050 2181 
L 1050 647 
Q 1050 366 1089 281 
Q 1128 197 1204 155 
Q 1281 113 1516 113 
L 1516 0 
L 100 0 
L 100 113 
Q 297 113 375 155 
Q 453 197 493 289 
Q 534 381 534 647 
L 534 1741 
Q 534 2213 506 2350 
Q 484 2453 437 2492 
Q 391 2531 309 2531 
Q 222 2531 100 2484 
L 53 2597 
L 916 2947 
L 1050 2947 
L 1050 2338 
z
" transform="scale(0.015625)"/>
       <path id="TimesNewRomanPSMT-62" d="M 984 2369 
Q 1400 2947 1881 2947 
Q 2322 2947 2650 2570 
Q 2978 2194 2978 1541 
Q 2978 778 2472 313 
Q 2038 -88 1503 -88 
Q 1253 -88 995 3 
Q 738 94 469 275 
L 469 3241 
Q 469 3728 445 3840 
Q 422 3953 372 3993 
Q 322 4034 247 4034 
Q 159 4034 28 3984 
L -16 4094 
L 844 4444 
L 984 4444 
L 984 2369 
z
M 984 2169 
L 984 456 
Q 1144 300 1314 220 
Q 1484 141 1663 141 
Q 1947 141 2192 453 
Q 2438 766 2438 1363 
Q 2438 1913 2192 2208 
Q 1947 2503 1634 2503 
Q 1469 2503 1303 2419 
Q 1178 2356 984 2169 
z
" transform="scale(0.015625)"/>
       <path id="TimesNewRomanPSMT-72" d="M 1038 2947 
L 1038 2303 
Q 1397 2947 1775 2947 
Q 1947 2947 2059 2842 
Q 2172 2738 2172 2600 
Q 2172 2478 2090 2393 
Q 2009 2309 1897 2309 
Q 1788 2309 1652 2417 
Q 1516 2525 1450 2525 
Q 1394 2525 1328 2463 
Q 1188 2334 1038 2041 
L 1038 669 
Q 1038 431 1097 309 
Q 1138 225 1241 169 
Q 1344 113 1538 113 
L 1538 0 
L 72 0 
L 72 113 
Q 291 113 397 181 
Q 475 231 506 341 
Q 522 394 522 644 
L 522 1753 
Q 522 2253 501 2348 
Q 481 2444 426 2487 
Q 372 2531 291 2531 
Q 194 2531 72 2484 
L 41 2597 
L 906 2947 
L 1038 2947 
z
" transform="scale(0.015625)"/>
       <path id="TimesNewRomanPSMT-66" d="M 1319 2638 
L 1319 756 
Q 1319 356 1406 250 
Q 1522 113 1716 113 
L 1975 113 
L 1975 0 
L 266 0 
L 266 113 
L 394 113 
Q 519 113 622 175 
Q 725 238 764 344 
Q 803 450 803 756 
L 803 2638 
L 247 2638 
L 247 2863 
L 803 2863 
L 803 3050 
Q 803 3478 940 3775 
Q 1078 4072 1361 4255 
Q 1644 4438 1997 4438 
Q 2325 4438 2600 4225 
Q 2781 4084 2781 3909 
Q 2781 3816 2700 3733 
Q 2619 3650 2525 3650 
Q 2453 3650 2373 3701 
Q 2294 3753 2178 3923 
Q 2063 4094 1966 4153 
Q 1869 4213 1750 4213 
Q 1606 4213 1506 4136 
Q 1406 4059 1362 3898 
Q 1319 3738 1319 3069 
L 1319 2863 
L 2056 2863 
L 2056 2638 
L 1319 2638 
z
" transform="scale(0.015625)"/>
       <path id="TimesNewRomanPSMT-45" d="M 1338 4006 
L 1338 2331 
L 2269 2331 
Q 2631 2331 2753 2441 
Q 2916 2584 2934 2947 
L 3050 2947 
L 3050 1472 
L 2934 1472 
Q 2891 1781 2847 1869 
Q 2791 1978 2662 2040 
Q 2534 2103 2269 2103 
L 1338 2103 
L 1338 706 
Q 1338 425 1363 364 
Q 1388 303 1450 267 
Q 1513 231 1688 231 
L 2406 231 
Q 2766 231 2928 281 
Q 3091 331 3241 478 
Q 3434 672 3638 1063 
L 3763 1063 
L 3397 0 
L 131 0 
L 131 116 
L 281 116 
Q 431 116 566 188 
Q 666 238 702 338 
Q 738 438 738 747 
L 738 3500 
Q 738 3903 656 3997 
Q 544 4122 281 4122 
L 131 4122 
L 131 4238 
L 3397 4238 
L 3444 3309 
L 3322 3309 
Q 3256 3644 3176 3769 
Q 3097 3894 2941 3959 
Q 2816 4006 2500 4006 
L 1338 4006 
z
" transform="scale(0.015625)"/>
       <path id="TimesNewRomanPSMT-76" d="M 53 2863 
L 1400 2863 
L 1400 2747 
L 1313 2747 
Q 1191 2747 1127 2687 
Q 1063 2628 1063 2528 
Q 1063 2419 1128 2269 
L 1794 688 
L 2463 2328 
Q 2534 2503 2534 2594 
Q 2534 2638 2509 2666 
Q 2475 2713 2422 2730 
Q 2369 2747 2206 2747 
L 2206 2863 
L 3141 2863 
L 3141 2747 
Q 2978 2734 2916 2681 
Q 2806 2588 2719 2369 
L 1703 -88 
L 1575 -88 
L 553 2328 
Q 484 2497 421 2570 
Q 359 2644 263 2694 
Q 209 2722 53 2747 
L 53 2863 
z
" transform="scale(0.015625)"/>
      </defs>
      <use xlink:href="#TimesNewRomanPSMT-4e"/>
      <use xlink:href="#TimesNewRomanPSMT-75" x="72.216797"/>
      <use xlink:href="#TimesNewRomanPSMT-6d" x="122.216797"/>
      <use xlink:href="#TimesNewRomanPSMT-62" x="200"/>
      <use xlink:href="#TimesNewRomanPSMT-65" x="250"/>
      <use xlink:href="#TimesNewRomanPSMT-72" x="294.384766"/>
      <use xlink:href="#TimesNewRomanPSMT-20" x="327.685547"/>
      <use xlink:href="#TimesNewRomanPSMT-6f" x="352.685547"/>
      <use xlink:href="#TimesNewRomanPSMT-66" x="402.685547"/>
      <use xlink:href="#TimesNewRomanPSMT-20" x="435.986328"/>
      <use xlink:href="#TimesNewRomanPSMT-45" x="460.986328"/>
      <use xlink:href="#TimesNewRomanPSMT-76" x="522.070312"/>
      <use xlink:href="#TimesNewRomanPSMT-65" x="572.070312"/>
      <use xlink:href="#TimesNewRomanPSMT-6e" x="616.455078"/>
      <use xlink:href="#TimesNewRomanPSMT-74" x="666.455078"/>
      <use xlink:href="#TimesNewRomanPSMT-73" x="694.238281"/>
     </g>
    </g>
   </g>
   <g id="line2d_31">
    <path d="M 166.459091 253.44 
L 166.459091 39.497143 
" clip-path="url(#p30552d2bf9)" style="fill: none; stroke-dasharray: 7.4,3.2; stroke-dashoffset: 0; stroke: #ff0000; stroke-width: 2"/>
   </g>
   <g id="patch_42">
    <path d="M 46.8 253.44 
L 46.8 28.8 
" style="fill: none; stroke: #000000; stroke-width: 0.8; stroke-linejoin: miter; stroke-linecap: square"/>
   </g>
   <g id="patch_43">
    <path d="M 429.709091 253.44 
L 429.709091 28.8 
" style="fill: none; stroke: #000000; stroke-width: 0.8; stroke-linejoin: miter; stroke-linecap: square"/>
   </g>
   <g id="patch_44">
    <path d="M 46.8 253.44 
L 429.709091 253.44 
" style="fill: none; stroke: #000000; stroke-width: 0.8; stroke-linejoin: miter; stroke-linecap: square"/>
   </g>
   <g id="patch_45">
    <path d="M 46.8 28.8 
L 429.709091 28.8 
" style="fill: none; stroke: #000000; stroke-width: 0.8; stroke-linejoin: miter; stroke-linecap: square"/>
   </g>
   <g id="legend_1">
    <g id="patch_46">
     <path d="M 273.232841 59.820938 
L 419.909091 59.820938 
Q 422.709091 59.820938 422.709091 57.020938 
L 422.709091 38.6 
Q 422.709091 35.8 419.909091 35.8 
L 273.232841 35.8 
Q 270.432841 35.8 270.432841 38.6 
L 270.432841 57.020938 
Q 270.432841 59.820938 273.232841 59.820938 
z
" style="fill: #ffffff; opacity: 0.8; stroke: #cccccc; stroke-linejoin: miter"/>
    </g>
    <g id="line2d_32">
     <path d="M 276.032841 46.3 
L 290.032841 46.3 
L 304.032841 46.3 
" style="fill: none; stroke-dasharray: 7.4,3.2; stroke-dashoffset: 0; stroke: #ff0000; stroke-width: 2"/>
    </g>
    <g id="text_18">
     <!-- Mode_95%: -2.50 -->
     <g transform="translate(315.232841 51.2) scale(0.14 -0.14)">
      <defs>
       <path id="TimesNewRomanPSMT-4d" d="M 2619 0 
L 981 3566 
L 981 734 
Q 981 344 1066 247 
Q 1181 116 1431 116 
L 1581 116 
L 1581 0 
L 106 0 
L 106 116 
L 256 116 
Q 525 116 638 278 
Q 706 378 706 734 
L 706 3503 
Q 706 3784 644 3909 
Q 600 4000 483 4061 
Q 366 4122 106 4122 
L 106 4238 
L 1306 4238 
L 2844 922 
L 4356 4238 
L 5556 4238 
L 5556 4122 
L 5409 4122 
Q 5138 4122 5025 3959 
Q 4956 3859 4956 3503 
L 4956 734 
Q 4956 344 5044 247 
Q 5159 116 5409 116 
L 5556 116 
L 5556 0 
L 3756 0 
L 3756 116 
L 3906 116 
Q 4178 116 4288 278 
Q 4356 378 4356 734 
L 4356 3566 
L 2722 0 
L 2619 0 
z
" transform="scale(0.015625)"/>
       <path id="TimesNewRomanPSMT-5f" d="M 3256 -1381 
L -53 -1381 
L -53 -1119 
L 3256 -1119 
L 3256 -1381 
z
" transform="scale(0.015625)"/>
       <path id="TimesNewRomanPSMT-39" d="M 338 -88 
L 338 28 
Q 744 34 1094 217 
Q 1444 400 1770 856 
Q 2097 1313 2225 1859 
Q 1734 1544 1338 1544 
Q 891 1544 572 1889 
Q 253 2234 253 2806 
Q 253 3363 572 3797 
Q 956 4325 1575 4325 
Q 2097 4325 2469 3894 
Q 2925 3359 2925 2575 
Q 2925 1869 2578 1258 
Q 2231 647 1613 244 
Q 1109 -88 516 -88 
L 338 -88 
z
M 2275 2091 
Q 2331 2497 2331 2741 
Q 2331 3044 2228 3395 
Q 2125 3747 1936 3934 
Q 1747 4122 1506 4122 
Q 1228 4122 1018 3872 
Q 809 3622 809 3128 
Q 809 2469 1088 2097 
Q 1291 1828 1588 1828 
Q 1731 1828 1928 1897 
Q 2125 1966 2275 2091 
z
" transform="scale(0.015625)"/>
       <path id="TimesNewRomanPSMT-25" d="M 4350 4334 
L 1263 -175 
L 984 -175 
L 4072 4334 
L 4350 4334 
z
M 1138 4334 
Q 1559 4334 1792 3984 
Q 2025 3634 2025 3181 
Q 2025 2638 1762 2341 
Q 1500 2044 1131 2044 
Q 884 2044 678 2180 
Q 472 2316 348 2584 
Q 225 2853 225 3181 
Q 225 3509 350 3786 
Q 475 4063 692 4198 
Q 909 4334 1138 4334 
z
M 1128 4159 
Q 969 4159 845 3971 
Q 722 3784 722 3184 
Q 722 2750 791 2522 
Q 844 2350 956 2256 
Q 1022 2200 1119 2200 
Q 1269 2200 1375 2363 
Q 1531 2603 1531 3166 
Q 1531 3759 1378 4000 
Q 1278 4159 1128 4159 
z
M 4206 2103 
Q 4428 2103 4648 1962 
Q 4869 1822 4989 1553 
Q 5109 1284 5109 963 
Q 5109 409 4843 117 
Q 4578 -175 4216 -175 
Q 3988 -175 3773 -34 
Q 3559 106 3436 367 
Q 3313 628 3313 963 
Q 3313 1291 3436 1562 
Q 3559 1834 3773 1968 
Q 3988 2103 4206 2103 
z
M 4209 1938 
Q 4059 1938 3950 1769 
Q 3809 1550 3809 941 
Q 3809 381 3953 159 
Q 4059 0 4209 0 
Q 4353 0 4466 172 
Q 4616 400 4616 956 
Q 4616 1544 4466 1778 
Q 4363 1938 4209 1938 
z
" transform="scale(0.015625)"/>
       <path id="TimesNewRomanPSMT-3a" d="M 903 2950 
Q 1047 2950 1148 2848 
Q 1250 2747 1250 2603 
Q 1250 2459 1148 2357 
Q 1047 2256 903 2256 
Q 759 2256 657 2357 
Q 556 2459 556 2603 
Q 556 2747 657 2848 
Q 759 2950 903 2950 
z
M 897 609 
Q 1044 609 1145 506 
Q 1247 403 1247 259 
Q 1247 116 1144 14 
Q 1041 -88 897 -88 
Q 753 -88 651 14 
Q 550 116 550 259 
Q 550 403 651 506 
Q 753 609 897 609 
z
" transform="scale(0.015625)"/>
       <path id="TimesNewRomanPSMT-2d" d="M 259 1672 
L 1875 1672 
L 1875 1200 
L 259 1200 
L 259 1672 
z
" transform="scale(0.015625)"/>
      </defs>
      <use xlink:href="#TimesNewRomanPSMT-4d"/>
      <use xlink:href="#TimesNewRomanPSMT-6f" x="88.916016"/>
      <use xlink:href="#TimesNewRomanPSMT-64" x="138.916016"/>
      <use xlink:href="#TimesNewRomanPSMT-65" x="188.916016"/>
      <use xlink:href="#TimesNewRomanPSMT-5f" x="233.300781"/>
      <use xlink:href="#TimesNewRomanPSMT-39" x="283.300781"/>
      <use xlink:href="#TimesNewRomanPSMT-35" x="333.300781"/>
      <use xlink:href="#TimesNewRomanPSMT-25" x="383.300781"/>
      <use xlink:href="#TimesNewRomanPSMT-3a" x="466.601562"/>
      <use xlink:href="#TimesNewRomanPSMT-20" x="494.384766"/>
      <use xlink:href="#TimesNewRomanPSMT-2d" x="519.384766"/>
      <use xlink:href="#TimesNewRomanPSMT-32" x="552.685547"/>
      <use xlink:href="#TimesNewRomanPSMT-2e" x="602.685547"/>
      <use xlink:href="#TimesNewRomanPSMT-35" x="627.685547"/>
      <use xlink:href="#TimesNewRomanPSMT-30" x="677.685547"/>
     </g>
    </g>
   </g>
  </g>
  <g id="axes_2">
   <g id="patch_47">
    <path d="M 506.290909 253.44 
L 889.2 253.44 
L 889.2 28.8 
L 506.290909 28.8 
L 506.290909 253.44 
z
" style="fill: none"/>
   </g>
   <g id="patch_48">
    <path d="M 511.077273 253.44 
L 518.735455 253.44 
L 518.735455 247.226376 
L 511.077273 247.226376 
z
" clip-path="url(#pccd6aaaa05)" style="fill: #808080"/>
   </g>
   <g id="patch_49">
    <path d="M 520.65 253.44 
L 528.308182 253.44 
L 528.308182 250.268463 
L 520.65 250.268463 
z
" clip-path="url(#pccd6aaaa05)" style="fill: #808080"/>
   </g>
   <g id="patch_50">
    <path d="M 530.222727 253.44 
L 537.880909 253.44 
L 537.880909 249.427034 
L 530.222727 249.427034 
z
" clip-path="url(#pccd6aaaa05)" style="fill: #808080"/>
   </g>
   <g id="patch_51">
    <path d="M 539.795455 253.44 
L 547.453636 253.44 
L 547.453636 246.579123 
L 539.795455 246.579123 
z
" clip-path="url(#pccd6aaaa05)" style="fill: #808080"/>
   </g>
   <g id="patch_52">
    <path d="M 549.368182 253.44 
L 557.026364 253.44 
L 557.026364 243.21341 
L 549.368182 243.21341 
z
" clip-path="url(#pccd6aaaa05)" style="fill: #808080"/>
   </g>
   <g id="patch_53">
    <path d="M 558.940909 253.44 
L 566.599091 253.44 
L 566.599091 238.359016 
L 558.940909 238.359016 
z
" clip-path="url(#pccd6aaaa05)" style="fill: #808080"/>
   </g>
   <g id="patch_54">
    <path d="M 568.513636 253.44 
L 576.171818 253.44 
L 576.171818 227.549898 
L 568.513636 227.549898 
z
" clip-path="url(#pccd6aaaa05)" style="fill: #808080"/>
   </g>
   <g id="patch_55">
    <path d="M 578.086364 253.44 
L 585.744545 253.44 
L 585.744545 209.491552 
L 578.086364 209.491552 
z
" clip-path="url(#pccd6aaaa05)" style="fill: #808080"/>
   </g>
   <g id="patch_56">
    <path d="M 587.659091 253.44 
L 595.317273 253.44 
L 595.317273 189.297273 
L 587.659091 189.297273 
z
" clip-path="url(#pccd6aaaa05)" style="fill: #808080"/>
   </g>
   <g id="patch_57">
    <path d="M 597.231818 253.44 
L 604.89 253.44 
L 604.89 171.692003 
L 597.231818 171.692003 
z
" clip-path="url(#pccd6aaaa05)" style="fill: #808080"/>
   </g>
   <g id="patch_58">
    <path d="M 606.804545 253.44 
L 614.462727 253.44 
L 614.462727 170.397498 
L 606.804545 170.397498 
z
" clip-path="url(#pccd6aaaa05)" style="fill: #808080"/>
   </g>
   <g id="patch_59">
    <path d="M 616.377273 253.44 
L 624.035455 253.44 
L 624.035455 168.973543 
L 616.377273 168.973543 
z
" clip-path="url(#pccd6aaaa05)" style="fill: #808080"/>
   </g>
   <g id="patch_60">
    <path d="M 625.95 253.44 
L 633.608182 253.44 
L 633.608182 173.763211 
L 625.95 173.763211 
z
" clip-path="url(#pccd6aaaa05)" style="fill: #808080"/>
   </g>
   <g id="patch_61">
    <path d="M 635.522727 253.44 
L 643.180909 253.44 
L 643.180909 169.426619 
L 635.522727 169.426619 
z
" clip-path="url(#pccd6aaaa05)" style="fill: #808080"/>
   </g>
   <g id="patch_62">
    <path d="M 645.095455 253.44 
L 652.753636 253.44 
L 652.753636 157.387722 
L 645.095455 157.387722 
z
" clip-path="url(#pccd6aaaa05)" style="fill: #808080"/>
   </g>
   <g id="patch_63">
    <path d="M 654.668182 253.44 
L 662.326364 253.44 
L 662.326364 122.953886 
L 654.668182 122.953886 
z
" clip-path="url(#pccd6aaaa05)" style="fill: #808080"/>
   </g>
   <g id="patch_64">
    <path d="M 664.240909 253.44 
L 671.899091 253.44 
L 671.899091 49.684898 
L 664.240909 49.684898 
z
" clip-path="url(#pccd6aaaa05)" style="fill: #808080"/>
   </g>
   <g id="patch_65">
    <path d="M 673.813636 253.44 
L 681.471818 253.44 
L 681.471818 57.84028 
L 673.813636 57.84028 
z
" clip-path="url(#pccd6aaaa05)" style="fill: #808080"/>
   </g>
   <g id="patch_66">
    <path d="M 683.386364 253.44 
L 691.044545 253.44 
L 691.044545 130.979818 
L 683.386364 130.979818 
z
" clip-path="url(#pccd6aaaa05)" style="fill: #808080"/>
   </g>
   <g id="patch_67">
    <path d="M 692.959091 253.44 
L 700.617273 253.44 
L 700.617273 144.377946 
L 692.959091 144.377946 
z
" clip-path="url(#pccd6aaaa05)" style="fill: #808080"/>
   </g>
   <g id="patch_68">
    <path d="M 702.531818 253.44 
L 710.19 253.44 
L 710.19 150.850471 
L 702.531818 150.850471 
z
" clip-path="url(#pccd6aaaa05)" style="fill: #808080"/>
   </g>
   <g id="patch_69">
    <path d="M 712.104545 253.44 
L 719.762727 253.44 
L 719.762727 144.831022 
L 712.104545 144.831022 
z
" clip-path="url(#pccd6aaaa05)" style="fill: #808080"/>
   </g>
   <g id="patch_70">
    <path d="M 721.677273 253.44 
L 729.335455 253.44 
L 729.335455 142.759814 
L 721.677273 142.759814 
z
" clip-path="url(#pccd6aaaa05)" style="fill: #808080"/>
   </g>
   <g id="patch_71">
    <path d="M 731.25 253.44 
L 738.908182 253.44 
L 738.908182 140.559156 
L 731.25 140.559156 
z
" clip-path="url(#pccd6aaaa05)" style="fill: #808080"/>
   </g>
   <g id="patch_72">
    <path d="M 740.822727 253.44 
L 748.480909 253.44 
L 748.480909 128.90861 
L 740.822727 128.90861 
z
" clip-path="url(#pccd6aaaa05)" style="fill: #808080"/>
   </g>
   <g id="patch_73">
    <path d="M 750.395455 253.44 
L 758.053636 253.44 
L 758.053636 113.503999 
L 750.395455 113.503999 
z
" clip-path="url(#pccd6aaaa05)" style="fill: #808080"/>
   </g>
   <g id="patch_74">
    <path d="M 759.968182 253.44 
L 767.626364 253.44 
L 767.626364 97.193235 
L 759.968182 97.193235 
z
" clip-path="url(#pccd6aaaa05)" style="fill: #808080"/>
   </g>
   <g id="patch_75">
    <path d="M 769.540909 253.44 
L 777.199091 253.44 
L 777.199091 78.617087 
L 769.540909 78.617087 
z
" clip-path="url(#pccd6aaaa05)" style="fill: #808080"/>
   </g>
   <g id="patch_76">
    <path d="M 779.113636 253.44 
L 786.771818 253.44 
L 786.771818 127.161028 
L 779.113636 127.161028 
z
" clip-path="url(#pccd6aaaa05)" style="fill: #808080"/>
   </g>
   <g id="patch_77">
    <path d="M 788.686364 253.44 
L 796.344545 253.44 
L 796.344545 109.426308 
L 788.686364 109.426308 
z
" clip-path="url(#pccd6aaaa05)" style="fill: #808080"/>
   </g>
   <g id="patch_78">
    <path d="M 798.259091 253.44 
L 805.917273 253.44 
L 805.917273 93.956972 
L 798.259091 93.956972 
z
" clip-path="url(#pccd6aaaa05)" style="fill: #808080"/>
   </g>
   <g id="patch_79">
    <path d="M 807.831818 253.44 
L 815.49 253.44 
L 815.49 136.999267 
L 807.831818 136.999267 
z
" clip-path="url(#pccd6aaaa05)" style="fill: #808080"/>
   </g>
   <g id="patch_80">
    <path d="M 817.404545 253.44 
L 825.062727 253.44 
L 825.062727 213.245617 
L 817.404545 213.245617 
z
" clip-path="url(#pccd6aaaa05)" style="fill: #808080"/>
   </g>
   <g id="patch_81">
    <path d="M 826.977273 253.44 
L 834.635455 253.44 
L 834.635455 232.533743 
L 826.977273 232.533743 
z
" clip-path="url(#pccd6aaaa05)" style="fill: #808080"/>
   </g>
   <g id="patch_82">
    <path d="M 836.55 253.44 
L 844.208182 253.44 
L 844.208182 243.925388 
L 836.55 243.925388 
z
" clip-path="url(#pccd6aaaa05)" style="fill: #808080"/>
   </g>
   <g id="patch_83">
    <path d="M 846.122727 253.44 
L 853.780909 253.44 
L 853.780909 248.520881 
L 846.122727 248.520881 
z
" clip-path="url(#pccd6aaaa05)" style="fill: #808080"/>
   </g>
   <g id="patch_84">
    <path d="M 855.695455 253.44 
L 863.353636 253.44 
L 863.353636 250.268463 
L 855.695455 250.268463 
z
" clip-path="url(#pccd6aaaa05)" style="fill: #808080"/>
   </g>
   <g id="patch_85">
    <path d="M 865.268182 253.44 
L 872.926364 253.44 
L 872.926364 250.85099 
L 865.268182 250.85099 
z
" clip-path="url(#pccd6aaaa05)" style="fill: #808080"/>
   </g>
   <g id="patch_86">
    <path d="M 874.840909 253.44 
L 882.499091 253.44 
L 882.499091 252.016044 
L 874.840909 252.016044 
z
" clip-path="url(#pccd6aaaa05)" style="fill: #808080"/>
   </g>
   <g id="matplotlib.axis_3">
    <g id="xtick_10">
     <g id="line2d_33">
      <path d="M 506.290909 253.44 
L 506.290909 28.8 
" clip-path="url(#pccd6aaaa05)" style="fill: none; stroke: #b0b0b0; stroke-width: 0.8; stroke-linecap: square"/>
     </g>
     <g id="line2d_34">
      <g>
       <use xlink:href="#mff8f363f92" x="506.290909" y="253.44" style="stroke: #000000; stroke-width: 0.8"/>
      </g>
     </g>
     <g id="text_19">
      <!-- −9 -->
      <g transform="translate(498.843565 270.16125) scale(0.14 -0.14)">
       <use xlink:href="#TimesNewRomanPSMT-2212"/>
       <use xlink:href="#TimesNewRomanPSMT-39" x="56.396484"/>
      </g>
     </g>
    </g>
    <g id="xtick_11">
     <g id="line2d_35">
      <path d="M 554.154545 253.44 
L 554.154545 28.8 
" clip-path="url(#pccd6aaaa05)" style="fill: none; stroke: #b0b0b0; stroke-width: 0.8; stroke-linecap: square"/>
     </g>
     <g id="line2d_36">
      <g>
       <use xlink:href="#mff8f363f92" x="554.154545" y="253.44" style="stroke: #000000; stroke-width: 0.8"/>
      </g>
     </g>
     <g id="text_20">
      <!-- −8 -->
      <g transform="translate(546.707202 270.16125) scale(0.14 -0.14)">
       <defs>
        <path id="TimesNewRomanPSMT-38" d="M 1228 2134 
Q 725 2547 579 2797 
Q 434 3047 434 3316 
Q 434 3728 753 4026 
Q 1072 4325 1600 4325 
Q 2113 4325 2425 4047 
Q 2738 3769 2738 3413 
Q 2738 3175 2569 2928 
Q 2400 2681 1866 2347 
Q 2416 1922 2594 1678 
Q 2831 1359 2831 1006 
Q 2831 559 2490 242 
Q 2150 -75 1597 -75 
Q 994 -75 656 303 
Q 388 606 388 966 
Q 388 1247 577 1523 
Q 766 1800 1228 2134 
z
M 1719 2469 
Q 2094 2806 2194 3001 
Q 2294 3197 2294 3444 
Q 2294 3772 2109 3958 
Q 1925 4144 1606 4144 
Q 1288 4144 1088 3959 
Q 888 3775 888 3528 
Q 888 3366 970 3203 
Q 1053 3041 1206 2894 
L 1719 2469 
z
M 1375 2016 
Q 1116 1797 991 1539 
Q 866 1281 866 981 
Q 866 578 1086 336 
Q 1306 94 1647 94 
Q 1984 94 2187 284 
Q 2391 475 2391 747 
Q 2391 972 2272 1150 
Q 2050 1481 1375 2016 
z
" transform="scale(0.015625)"/>
       </defs>
       <use xlink:href="#TimesNewRomanPSMT-2212"/>
       <use xlink:href="#TimesNewRomanPSMT-38" x="56.396484"/>
      </g>
     </g>
    </g>
    <g id="xtick_12">
     <g id="line2d_37">
      <path d="M 602.018182 253.44 
L 602.018182 28.8 
" clip-path="url(#pccd6aaaa05)" style="fill: none; stroke: #b0b0b0; stroke-width: 0.8; stroke-linecap: square"/>
     </g>
     <g id="line2d_38">
      <g>
       <use xlink:href="#mff8f363f92" x="602.018182" y="253.44" style="stroke: #000000; stroke-width: 0.8"/>
      </g>
     </g>
     <g id="text_21">
      <!-- −7 -->
      <g transform="translate(594.570838 270.16125) scale(0.14 -0.14)">
       <defs>
        <path id="TimesNewRomanPSMT-37" d="M 644 4238 
L 2916 4238 
L 2916 4119 
L 1503 -88 
L 1153 -88 
L 2419 3728 
L 1253 3728 
Q 900 3728 750 3644 
Q 488 3500 328 3200 
L 238 3234 
L 644 4238 
z
" transform="scale(0.015625)"/>
       </defs>
       <use xlink:href="#TimesNewRomanPSMT-2212"/>
       <use xlink:href="#TimesNewRomanPSMT-37" x="56.396484"/>
      </g>
     </g>
    </g>
    <g id="xtick_13">
     <g id="line2d_39">
      <path d="M 649.881818 253.44 
L 649.881818 28.8 
" clip-path="url(#pccd6aaaa05)" style="fill: none; stroke: #b0b0b0; stroke-width: 0.8; stroke-linecap: square"/>
     </g>
     <g id="line2d_40">
      <g>
       <use xlink:href="#mff8f363f92" x="649.881818" y="253.44" style="stroke: #000000; stroke-width: 0.8"/>
      </g>
     </g>
     <g id="text_22">
      <!-- −6 -->
      <g transform="translate(642.434474 270.16125) scale(0.14 -0.14)">
       <defs>
        <path id="TimesNewRomanPSMT-36" d="M 2869 4325 
L 2869 4209 
Q 2456 4169 2195 4045 
Q 1934 3922 1679 3669 
Q 1425 3416 1258 3105 
Q 1091 2794 978 2366 
Q 1428 2675 1881 2675 
Q 2316 2675 2634 2325 
Q 2953 1975 2953 1425 
Q 2953 894 2631 456 
Q 2244 -75 1606 -75 
Q 1172 -75 869 213 
Q 275 772 275 1663 
Q 275 2231 503 2743 
Q 731 3256 1154 3653 
Q 1578 4050 1965 4187 
Q 2353 4325 2688 4325 
L 2869 4325 
z
M 925 2138 
Q 869 1716 869 1456 
Q 869 1156 980 804 
Q 1091 453 1309 247 
Q 1469 100 1697 100 
Q 1969 100 2183 356 
Q 2397 613 2397 1088 
Q 2397 1622 2184 2012 
Q 1972 2403 1581 2403 
Q 1463 2403 1327 2353 
Q 1191 2303 925 2138 
z
" transform="scale(0.015625)"/>
       </defs>
       <use xlink:href="#TimesNewRomanPSMT-2212"/>
       <use xlink:href="#TimesNewRomanPSMT-36" x="56.396484"/>
      </g>
     </g>
    </g>
    <g id="xtick_14">
     <g id="line2d_41">
      <path d="M 697.745455 253.44 
L 697.745455 28.8 
" clip-path="url(#pccd6aaaa05)" style="fill: none; stroke: #b0b0b0; stroke-width: 0.8; stroke-linecap: square"/>
     </g>
     <g id="line2d_42">
      <g>
       <use xlink:href="#mff8f363f92" x="697.745455" y="253.44" style="stroke: #000000; stroke-width: 0.8"/>
      </g>
     </g>
     <g id="text_23">
      <!-- −5 -->
      <g transform="translate(690.298111 270.16125) scale(0.14 -0.14)">
       <use xlink:href="#TimesNewRomanPSMT-2212"/>
       <use xlink:href="#TimesNewRomanPSMT-35" x="56.396484"/>
      </g>
     </g>
    </g>
    <g id="xtick_15">
     <g id="line2d_43">
      <path d="M 745.609091 253.44 
L 745.609091 28.8 
" clip-path="url(#pccd6aaaa05)" style="fill: none; stroke: #b0b0b0; stroke-width: 0.8; stroke-linecap: square"/>
     </g>
     <g id="line2d_44">
      <g>
       <use xlink:href="#mff8f363f92" x="745.609091" y="253.44" style="stroke: #000000; stroke-width: 0.8"/>
      </g>
     </g>
     <g id="text_24">
      <!-- −4 -->
      <g transform="translate(738.161747 270.16125) scale(0.14 -0.14)">
       <use xlink:href="#TimesNewRomanPSMT-2212"/>
       <use xlink:href="#TimesNewRomanPSMT-34" x="56.396484"/>
      </g>
     </g>
    </g>
    <g id="xtick_16">
     <g id="line2d_45">
      <path d="M 793.472727 253.44 
L 793.472727 28.8 
" clip-path="url(#pccd6aaaa05)" style="fill: none; stroke: #b0b0b0; stroke-width: 0.8; stroke-linecap: square"/>
     </g>
     <g id="line2d_46">
      <g>
       <use xlink:href="#mff8f363f92" x="793.472727" y="253.44" style="stroke: #000000; stroke-width: 0.8"/>
      </g>
     </g>
     <g id="text_25">
      <!-- −3 -->
      <g transform="translate(786.025384 270.16125) scale(0.14 -0.14)">
       <use xlink:href="#TimesNewRomanPSMT-2212"/>
       <use xlink:href="#TimesNewRomanPSMT-33" x="56.396484"/>
      </g>
     </g>
    </g>
    <g id="xtick_17">
     <g id="line2d_47">
      <path d="M 841.336364 253.44 
L 841.336364 28.8 
" clip-path="url(#pccd6aaaa05)" style="fill: none; stroke: #b0b0b0; stroke-width: 0.8; stroke-linecap: square"/>
     </g>
     <g id="line2d_48">
      <g>
       <use xlink:href="#mff8f363f92" x="841.336364" y="253.44" style="stroke: #000000; stroke-width: 0.8"/>
      </g>
     </g>
     <g id="text_26">
      <!-- −2 -->
      <g transform="translate(833.88902 270.16125) scale(0.14 -0.14)">
       <use xlink:href="#TimesNewRomanPSMT-2212"/>
       <use xlink:href="#TimesNewRomanPSMT-32" x="56.396484"/>
      </g>
     </g>
    </g>
    <g id="xtick_18">
     <g id="line2d_49">
      <path d="M 889.2 253.44 
L 889.2 28.8 
" clip-path="url(#pccd6aaaa05)" style="fill: none; stroke: #b0b0b0; stroke-width: 0.8; stroke-linecap: square"/>
     </g>
     <g id="line2d_50">
      <g>
       <use xlink:href="#mff8f363f92" x="889.2" y="253.44" style="stroke: #000000; stroke-width: 0.8"/>
      </g>
     </g>
     <g id="text_27">
      <!-- −1 -->
      <g transform="translate(881.752656 270.16125) scale(0.14 -0.14)">
       <use xlink:href="#TimesNewRomanPSMT-2212"/>
       <use xlink:href="#TimesNewRomanPSMT-31" x="56.396484"/>
      </g>
     </g>
    </g>
    <g id="text_28">
     <!-- log Rescaled Time, log$_{10} T$ -->
     <g transform="translate(622.005455 287.375938) scale(0.14 -0.14)">
      <defs>
       <path id="TimesNewRomanPSMT-54" d="M 3703 4238 
L 3750 3244 
L 3631 3244 
Q 3597 3506 3538 3619 
Q 3441 3800 3280 3886 
Q 3119 3972 2856 3972 
L 2259 3972 
L 2259 734 
Q 2259 344 2344 247 
Q 2463 116 2709 116 
L 2856 116 
L 2856 0 
L 1059 0 
L 1059 116 
L 1209 116 
Q 1478 116 1591 278 
Q 1659 378 1659 734 
L 1659 3972 
L 1150 3972 
Q 853 3972 728 3928 
Q 566 3869 450 3700 
Q 334 3531 313 3244 
L 194 3244 
L 244 4238 
L 3703 4238 
z
" transform="scale(0.015625)"/>
       <path id="DejaVuSans-Oblique-54" d="M 378 4666 
L 4325 4666 
L 4225 4134 
L 2559 4134 
L 1759 0 
L 1125 0 
L 1925 4134 
L 275 4134 
L 378 4666 
z
" transform="scale(0.015625)"/>
      </defs>
      <use xlink:href="#TimesNewRomanPSMT-6c" transform="translate(0 0.09375)"/>
      <use xlink:href="#TimesNewRomanPSMT-6f" transform="translate(27.783203 0.09375)"/>
      <use xlink:href="#TimesNewRomanPSMT-67" transform="translate(77.783203 0.09375)"/>
      <use xlink:href="#TimesNewRomanPSMT-20" transform="translate(127.783203 0.09375)"/>
      <use xlink:href="#TimesNewRomanPSMT-52" transform="translate(152.783203 0.09375)"/>
      <use xlink:href="#TimesNewRomanPSMT-65" transform="translate(219.482422 0.09375)"/>
      <use xlink:href="#TimesNewRomanPSMT-73" transform="translate(263.867188 0.09375)"/>
      <use xlink:href="#TimesNewRomanPSMT-63" transform="translate(302.783203 0.09375)"/>
      <use xlink:href="#TimesNewRomanPSMT-61" transform="translate(347.167969 0.09375)"/>
      <use xlink:href="#TimesNewRomanPSMT-6c" transform="translate(391.552734 0.09375)"/>
      <use xlink:href="#TimesNewRomanPSMT-65" transform="translate(419.335938 0.09375)"/>
      <use xlink:href="#TimesNewRomanPSMT-64" transform="translate(463.720703 0.09375)"/>
      <use xlink:href="#TimesNewRomanPSMT-20" transform="translate(513.720703 0.09375)"/>
      <use xlink:href="#TimesNewRomanPSMT-54" transform="translate(538.720703 0.09375)"/>
      <use xlink:href="#TimesNewRomanPSMT-69" transform="translate(599.804688 0.09375)"/>
      <use xlink:href="#TimesNewRomanPSMT-6d" transform="translate(627.587891 0.09375)"/>
      <use xlink:href="#TimesNewRomanPSMT-65" transform="translate(705.371094 0.09375)"/>
      <use xlink:href="#TimesNewRomanPSMT-2c" transform="translate(749.755859 0.09375)"/>
      <use xlink:href="#TimesNewRomanPSMT-20" transform="translate(774.755859 0.09375)"/>
      <use xlink:href="#TimesNewRomanPSMT-6c" transform="translate(799.755859 0.09375)"/>
      <use xlink:href="#TimesNewRomanPSMT-6f" transform="translate(827.539062 0.09375)"/>
      <use xlink:href="#TimesNewRomanPSMT-67" transform="translate(877.539062 0.09375)"/>
      <use xlink:href="#DejaVuSans-31" transform="translate(928.496094 -16.3125) scale(0.7)"/>
      <use xlink:href="#DejaVuSans-30" transform="translate(973.032227 -16.3125) scale(0.7)"/>
      <use xlink:href="#DejaVuSans-Oblique-54" transform="translate(1020.302734 0.09375)"/>
     </g>
    </g>
   </g>
   <g id="matplotlib.axis_4">
    <g id="ytick_7">
     <g id="line2d_51">
      <path d="M 506.290909 253.44 
L 889.2 253.44 
" clip-path="url(#pccd6aaaa05)" style="fill: none; stroke: #b0b0b0; stroke-width: 0.8; stroke-linecap: square"/>
     </g>
     <g id="line2d_52">
      <g>
       <use xlink:href="#m65c4c33b62" x="506.290909" y="253.44" style="stroke: #000000; stroke-width: 0.8"/>
      </g>
     </g>
     <g id="text_29">
      <!-- 0.00 -->
      <g transform="translate(474.790909 258.300625) scale(0.14 -0.14)">
       <use xlink:href="#TimesNewRomanPSMT-30"/>
       <use xlink:href="#TimesNewRomanPSMT-2e" x="50"/>
       <use xlink:href="#TimesNewRomanPSMT-30" x="75"/>
       <use xlink:href="#TimesNewRomanPSMT-30" x="125"/>
      </g>
     </g>
    </g>
    <g id="ytick_8">
     <g id="line2d_53">
      <path d="M 506.290909 220.751157 
L 889.2 220.751157 
" clip-path="url(#pccd6aaaa05)" style="fill: none; stroke: #b0b0b0; stroke-width: 0.8; stroke-linecap: square"/>
     </g>
     <g id="line2d_54">
      <g>
       <use xlink:href="#m65c4c33b62" x="506.290909" y="220.751157" style="stroke: #000000; stroke-width: 0.8"/>
      </g>
     </g>
     <g id="text_30">
      <!-- 0.05 -->
      <g transform="translate(474.790909 225.611782) scale(0.14 -0.14)">
       <use xlink:href="#TimesNewRomanPSMT-30"/>
       <use xlink:href="#TimesNewRomanPSMT-2e" x="50"/>
       <use xlink:href="#TimesNewRomanPSMT-30" x="75"/>
       <use xlink:href="#TimesNewRomanPSMT-35" x="125"/>
      </g>
     </g>
    </g>
    <g id="ytick_9">
     <g id="line2d_55">
      <path d="M 506.290909 188.062315 
L 889.2 188.062315 
" clip-path="url(#pccd6aaaa05)" style="fill: none; stroke: #b0b0b0; stroke-width: 0.8; stroke-linecap: square"/>
     </g>
     <g id="line2d_56">
      <g>
       <use xlink:href="#m65c4c33b62" x="506.290909" y="188.062315" style="stroke: #000000; stroke-width: 0.8"/>
      </g>
     </g>
     <g id="text_31">
      <!-- 0.10 -->
      <g transform="translate(474.790909 192.92294) scale(0.14 -0.14)">
       <use xlink:href="#TimesNewRomanPSMT-30"/>
       <use xlink:href="#TimesNewRomanPSMT-2e" x="50"/>
       <use xlink:href="#TimesNewRomanPSMT-31" x="75"/>
       <use xlink:href="#TimesNewRomanPSMT-30" x="125"/>
      </g>
     </g>
    </g>
    <g id="ytick_10">
     <g id="line2d_57">
      <path d="M 506.290909 155.373472 
L 889.2 155.373472 
" clip-path="url(#pccd6aaaa05)" style="fill: none; stroke: #b0b0b0; stroke-width: 0.8; stroke-linecap: square"/>
     </g>
     <g id="line2d_58">
      <g>
       <use xlink:href="#m65c4c33b62" x="506.290909" y="155.373472" style="stroke: #000000; stroke-width: 0.8"/>
      </g>
     </g>
     <g id="text_32">
      <!-- 0.15 -->
      <g transform="translate(474.790909 160.234097) scale(0.14 -0.14)">
       <use xlink:href="#TimesNewRomanPSMT-30"/>
       <use xlink:href="#TimesNewRomanPSMT-2e" x="50"/>
       <use xlink:href="#TimesNewRomanPSMT-31" x="75"/>
       <use xlink:href="#TimesNewRomanPSMT-35" x="125"/>
      </g>
     </g>
    </g>
    <g id="ytick_11">
     <g id="line2d_59">
      <path d="M 506.290909 122.684629 
L 889.2 122.684629 
" clip-path="url(#pccd6aaaa05)" style="fill: none; stroke: #b0b0b0; stroke-width: 0.8; stroke-linecap: square"/>
     </g>
     <g id="line2d_60">
      <g>
       <use xlink:href="#m65c4c33b62" x="506.290909" y="122.684629" style="stroke: #000000; stroke-width: 0.8"/>
      </g>
     </g>
     <g id="text_33">
      <!-- 0.20 -->
      <g transform="translate(474.790909 127.545254) scale(0.14 -0.14)">
       <use xlink:href="#TimesNewRomanPSMT-30"/>
       <use xlink:href="#TimesNewRomanPSMT-2e" x="50"/>
       <use xlink:href="#TimesNewRomanPSMT-32" x="75"/>
       <use xlink:href="#TimesNewRomanPSMT-30" x="125"/>
      </g>
     </g>
    </g>
    <g id="ytick_12">
     <g id="line2d_61">
      <path d="M 506.290909 89.995787 
L 889.2 89.995787 
" clip-path="url(#pccd6aaaa05)" style="fill: none; stroke: #b0b0b0; stroke-width: 0.8; stroke-linecap: square"/>
     </g>
     <g id="line2d_62">
      <g>
       <use xlink:href="#m65c4c33b62" x="506.290909" y="89.995787" style="stroke: #000000; stroke-width: 0.8"/>
      </g>
     </g>
     <g id="text_34">
      <!-- 0.25 -->
      <g transform="translate(474.790909 94.856412) scale(0.14 -0.14)">
       <use xlink:href="#TimesNewRomanPSMT-30"/>
       <use xlink:href="#TimesNewRomanPSMT-2e" x="50"/>
       <use xlink:href="#TimesNewRomanPSMT-32" x="75"/>
       <use xlink:href="#TimesNewRomanPSMT-35" x="125"/>
      </g>
     </g>
    </g>
    <g id="ytick_13">
     <g id="line2d_63">
      <path d="M 506.290909 57.306944 
L 889.2 57.306944 
" clip-path="url(#pccd6aaaa05)" style="fill: none; stroke: #b0b0b0; stroke-width: 0.8; stroke-linecap: square"/>
     </g>
     <g id="line2d_64">
      <g>
       <use xlink:href="#m65c4c33b62" x="506.290909" y="57.306944" style="stroke: #000000; stroke-width: 0.8"/>
      </g>
     </g>
     <g id="text_35">
      <!-- 0.30 -->
      <g transform="translate(474.790909 62.167569) scale(0.14 -0.14)">
       <use xlink:href="#TimesNewRomanPSMT-30"/>
       <use xlink:href="#TimesNewRomanPSMT-2e" x="50"/>
       <use xlink:href="#TimesNewRomanPSMT-33" x="75"/>
       <use xlink:href="#TimesNewRomanPSMT-30" x="125"/>
      </g>
     </g>
    </g>
   </g>
   <g id="line2d_65">
    <path d="M 664.240909 253.44 
L 664.240909 39.497143 
" clip-path="url(#pccd6aaaa05)" style="fill: none; stroke-dasharray: 7.4,3.2; stroke-dashoffset: 0; stroke: #ff0000; stroke-width: 2"/>
   </g>
   <g id="patch_87">
    <path d="M 506.290909 253.44 
L 506.290909 28.8 
" style="fill: none; stroke: #000000; stroke-width: 0.8; stroke-linejoin: miter; stroke-linecap: square"/>
   </g>
   <g id="patch_88">
    <path d="M 889.2 253.44 
L 889.2 28.8 
" style="fill: none; stroke: #000000; stroke-width: 0.8; stroke-linejoin: miter; stroke-linecap: square"/>
   </g>
   <g id="patch_89">
    <path d="M 506.290909 253.44 
L 889.2 253.44 
" style="fill: none; stroke: #000000; stroke-width: 0.8; stroke-linejoin: miter; stroke-linecap: square"/>
   </g>
   <g id="patch_90">
    <path d="M 506.290909 28.8 
L 889.2 28.8 
" style="fill: none; stroke: #000000; stroke-width: 0.8; stroke-linejoin: miter; stroke-linecap: square"/>
   </g>
   <g id="legend_2">
    <g id="patch_91">
     <path d="M 732.72375 59.820938 
L 879.4 59.820938 
Q 882.2 59.820938 882.2 57.020938 
L 882.2 38.6 
Q 882.2 35.8 879.4 35.8 
L 732.72375 35.8 
Q 729.92375 35.8 729.92375 38.6 
L 729.92375 57.020938 
Q 729.92375 59.820938 732.72375 59.820938 
z
" style="fill: #ffffff; opacity: 0.8; stroke: #cccccc; stroke-linejoin: miter"/>
    </g>
    <g id="line2d_66">
     <path d="M 735.52375 46.3 
L 749.52375 46.3 
L 763.52375 46.3 
" style="fill: none; stroke-dasharray: 7.4,3.2; stroke-dashoffset: 0; stroke: #ff0000; stroke-width: 2"/>
    </g>
    <g id="text_36">
     <!-- Mode_95%: -5.70 -->
     <g transform="translate(774.72375 51.2) scale(0.14 -0.14)">
      <use xlink:href="#TimesNewRomanPSMT-4d"/>
      <use xlink:href="#TimesNewRomanPSMT-6f" x="88.916016"/>
      <use xlink:href="#TimesNewRomanPSMT-64" x="138.916016"/>
      <use xlink:href="#TimesNewRomanPSMT-65" x="188.916016"/>
      <use xlink:href="#TimesNewRomanPSMT-5f" x="233.300781"/>
      <use xlink:href="#TimesNewRomanPSMT-39" x="283.300781"/>
      <use xlink:href="#TimesNewRomanPSMT-35" x="333.300781"/>
      <use xlink:href="#TimesNewRomanPSMT-25" x="383.300781"/>
      <use xlink:href="#TimesNewRomanPSMT-3a" x="466.601562"/>
      <use xlink:href="#TimesNewRomanPSMT-20" x="494.384766"/>
      <use xlink:href="#TimesNewRomanPSMT-2d" x="519.384766"/>
      <use xlink:href="#TimesNewRomanPSMT-35" x="552.685547"/>
      <use xlink:href="#TimesNewRomanPSMT-2e" x="602.685547"/>
      <use xlink:href="#TimesNewRomanPSMT-37" x="627.685547"/>
      <use xlink:href="#TimesNewRomanPSMT-30" x="677.685547"/>
     </g>
    </g>
   </g>
  </g>
 </g>
 <defs>
  <clipPath id="p30552d2bf9">
   <rect x="46.8" y="28.8" width="382.909091" height="224.64"/>
  </clipPath>
  <clipPath id="pccd6aaaa05">
   <rect x="506.290909" y="28.8" width="382.909091" height="224.64"/>
  </clipPath>
 </defs>
</svg>
