<?xml version="1.0" encoding="utf-8" standalone="no"?>
<!DOCTYPE svg PUBLIC "-//W3C//DTD SVG 1.1//EN"
  "http://www.w3.org/Graphics/SVG/1.1/DTD/svg11.dtd">
<svg xmlns:xlink="http://www.w3.org/1999/xlink" width="460.8pt" height="345.6pt" viewBox="0 0 460.8 345.6" xmlns="http://www.w3.org/2000/svg" version="1.1">
 <metadata>
  <rdf:RDF xmlns:dc="http://purl.org/dc/elements/1.1/" xmlns:cc="http://creativecommons.org/ns#" xmlns:rdf="http://www.w3.org/1999/02/22-rdf-syntax-ns#">
   <cc:Work>
    <dc:type rdf:resource="http://purl.org/dc/dcmitype/StillImage"/>
    <dc:date>2025-05-07T17:42:48.993584</dc:date>
    <dc:format>image/svg+xml</dc:format>
    <dc:creator>
     <cc:Agent>
      <dc:title>Matplotlib v3.9.2, https://matplotlib.org/</dc:title>
     </cc:Agent>
    </dc:creator>
   </cc:Work>
  </rdf:RDF>
 </metadata>
 <defs>
  <style type="text/css">*{stroke-linejoin: round; stroke-linecap: butt}</style>
 </defs>
 <g id="figure_1">
  <g id="patch_1">
   <path d="M 0 345.6 
L 460.8 345.6 
L 460.8 0 
L 0 0 
L 0 345.6 
z
" style="fill: none"/>
  </g>
  <g id="axes_1">
   <g id="patch_2">
    <path d="M 57.6 307.584 
L 414.72 307.584 
L 414.72 41.472 
L 57.6 41.472 
L 57.6 307.584 
z
" style="fill: none"/>
   </g>
   <g id="patch_3">
    <path d="M 60.347077 307.584 
L 64.7424 307.584 
L 64.7424 307.059165 
L 60.347077 307.059165 
z
" clip-path="url(#pcd0b678fb9)" style="fill: #808080"/>
   </g>
   <g id="patch_4">
    <path d="M 65.841231 307.584 
L 70.236554 307.584 
L 70.236554 305.834551 
L 65.841231 305.834551 
z
" clip-path="url(#pcd0b678fb9)" style="fill: #808080"/>
   </g>
   <g id="patch_5">
    <path d="M 71.335385 307.584 
L 75.730708 307.584 
L 75.730708 305.397189 
L 71.335385 305.397189 
z
" clip-path="url(#pcd0b678fb9)" style="fill: #808080"/>
   </g>
   <g id="patch_6">
    <path d="M 76.829538 307.584 
L 81.224862 307.584 
L 81.224862 303.472796 
L 76.829538 303.472796 
z
" clip-path="url(#pcd0b678fb9)" style="fill: #808080"/>
   </g>
   <g id="patch_7">
    <path d="M 82.323692 307.584 
L 86.719015 307.584 
L 86.719015 302.510599 
L 82.323692 302.510599 
z
" clip-path="url(#pcd0b678fb9)" style="fill: #808080"/>
   </g>
   <g id="patch_8">
    <path d="M 87.817846 307.584 
L 92.213169 307.584 
L 92.213169 302.510599 
L 87.817846 302.510599 
z
" clip-path="url(#pcd0b678fb9)" style="fill: #808080"/>
   </g>
   <g id="patch_9">
    <path d="M 93.312 307.584 
L 97.707323 307.584 
L 97.707323 298.661812 
L 93.312 298.661812 
z
" clip-path="url(#pcd0b678fb9)" style="fill: #808080"/>
   </g>
   <g id="patch_10">
    <path d="M 98.806154 307.584 
L 103.201477 307.584 
L 103.201477 294.463135 
L 98.806154 294.463135 
z
" clip-path="url(#pcd0b678fb9)" style="fill: #808080"/>
   </g>
   <g id="patch_11">
    <path d="M 104.300308 307.584 
L 108.695631 307.584 
L 108.695631 289.127317 
L 104.300308 289.127317 
z
" clip-path="url(#pcd0b678fb9)" style="fill: #808080"/>
   </g>
   <g id="patch_12">
    <path d="M 109.794462 307.584 
L 114.189785 307.584 
L 114.189785 284.403806 
L 109.794462 284.403806 
z
" clip-path="url(#pcd0b678fb9)" style="fill: #808080"/>
   </g>
   <g id="patch_13">
    <path d="M 115.288615 307.584 
L 119.683938 307.584 
L 119.683938 280.555019 
L 115.288615 280.555019 
z
" clip-path="url(#pcd0b678fb9)" style="fill: #808080"/>
   </g>
   <g id="patch_14">
    <path d="M 120.782769 307.584 
L 125.178092 307.584 
L 125.178092 269.795909 
L 120.782769 269.795909 
z
" clip-path="url(#pcd0b678fb9)" style="fill: #808080"/>
   </g>
   <g id="patch_15">
    <path d="M 126.276923 307.584 
L 130.672246 307.584 
L 130.672246 263.672839 
L 126.276923 263.672839 
z
" clip-path="url(#pcd0b678fb9)" style="fill: #808080"/>
   </g>
   <g id="patch_16">
    <path d="M 131.771077 307.584 
L 136.1664 307.584 
L 136.1664 254.663179 
L 131.771077 254.663179 
z
" clip-path="url(#pcd0b678fb9)" style="fill: #808080"/>
   </g>
   <g id="patch_17">
    <path d="M 137.265231 307.584 
L 141.660554 307.584 
L 141.660554 239.880338 
L 137.265231 239.880338 
z
" clip-path="url(#pcd0b678fb9)" style="fill: #808080"/>
   </g>
   <g id="patch_18">
    <path d="M 142.759385 307.584 
L 147.154708 307.584 
L 147.154708 226.497056 
L 142.759385 226.497056 
z
" clip-path="url(#pcd0b678fb9)" style="fill: #808080"/>
   </g>
   <g id="patch_19">
    <path d="M 148.253538 307.584 
L 152.648862 307.584 
L 152.648862 217.399923 
L 148.253538 217.399923 
z
" clip-path="url(#pcd0b678fb9)" style="fill: #808080"/>
   </g>
   <g id="patch_20">
    <path d="M 153.747692 307.584 
L 158.143015 307.584 
L 158.143015 199.817964 
L 153.747692 199.817964 
z
" clip-path="url(#pcd0b678fb9)" style="fill: #808080"/>
   </g>
   <g id="patch_21">
    <path d="M 159.241846 307.584 
L 163.637169 307.584 
L 163.637169 192.295335 
L 159.241846 192.295335 
z
" clip-path="url(#pcd0b678fb9)" style="fill: #808080"/>
   </g>
   <g id="patch_22">
    <path d="M 164.736 307.584 
L 169.131323 307.584 
L 169.131323 165.528771 
L 164.736 165.528771 
z
" clip-path="url(#pcd0b678fb9)" style="fill: #808080"/>
   </g>
   <g id="patch_23">
    <path d="M 170.230154 307.584 
L 174.625477 307.584 
L 174.625477 151.883071 
L 170.230154 151.883071 
z
" clip-path="url(#pcd0b678fb9)" style="fill: #808080"/>
   </g>
   <g id="patch_24">
    <path d="M 175.724308 307.584 
L 180.119631 307.584 
L 180.119631 142.698466 
L 175.724308 142.698466 
z
" clip-path="url(#pcd0b678fb9)" style="fill: #808080"/>
   </g>
   <g id="patch_25">
    <path d="M 181.218462 307.584 
L 185.613785 307.584 
L 185.613785 123.979365 
L 181.218462 123.979365 
z
" clip-path="url(#pcd0b678fb9)" style="fill: #808080"/>
   </g>
   <g id="patch_26">
    <path d="M 186.712615 307.584 
L 191.107938 307.584 
L 191.107938 116.806626 
L 186.712615 116.806626 
z
" clip-path="url(#pcd0b678fb9)" style="fill: #808080"/>
   </g>
   <g id="patch_27">
    <path d="M 192.206769 307.584 
L 196.602092 307.584 
L 196.602092 101.936313 
L 192.206769 101.936313 
z
" clip-path="url(#pcd0b678fb9)" style="fill: #808080"/>
   </g>
   <g id="patch_28">
    <path d="M 197.700923 307.584 
L 202.096246 307.584 
L 202.096246 89.777645 
L 197.700923 89.777645 
z
" clip-path="url(#pcd0b678fb9)" style="fill: #808080"/>
   </g>
   <g id="patch_29">
    <path d="M 203.195077 307.584 
L 207.5904 307.584 
L 207.5904 87.503361 
L 203.195077 87.503361 
z
" clip-path="url(#pcd0b678fb9)" style="fill: #808080"/>
   </g>
   <g id="patch_30">
    <path d="M 208.689231 307.584 
L 213.084554 307.584 
L 213.084554 81.642708 
L 208.689231 81.642708 
z
" clip-path="url(#pcd0b678fb9)" style="fill: #808080"/>
   </g>
   <g id="patch_31">
    <path d="M 214.183385 307.584 
L 218.578708 307.584 
L 218.578708 84.616771 
L 214.183385 84.616771 
z
" clip-path="url(#pcd0b678fb9)" style="fill: #808080"/>
   </g>
   <g id="patch_32">
    <path d="M 219.677538 307.584 
L 224.072862 307.584 
L 224.072862 79.54337 
L 219.677538 79.54337 
z
" clip-path="url(#pcd0b678fb9)" style="fill: #808080"/>
   </g>
   <g id="patch_33">
    <path d="M 225.171692 307.584 
L 229.567015 307.584 
L 229.567015 77.706449 
L 225.171692 77.706449 
z
" clip-path="url(#pcd0b678fb9)" style="fill: #808080"/>
   </g>
   <g id="patch_34">
    <path d="M 230.665846 307.584 
L 235.061169 307.584 
L 235.061169 86.891054 
L 230.665846 86.891054 
z
" clip-path="url(#pcd0b678fb9)" style="fill: #808080"/>
   </g>
   <g id="patch_35">
    <path d="M 236.16 307.584 
L 240.555323 307.584 
L 240.555323 101.236533 
L 236.16 101.236533 
z
" clip-path="url(#pcd0b678fb9)" style="fill: #808080"/>
   </g>
   <g id="patch_36">
    <path d="M 241.654154 307.584 
L 246.049477 307.584 
L 246.049477 96.950384 
L 241.654154 96.950384 
z
" clip-path="url(#pcd0b678fb9)" style="fill: #808080"/>
   </g>
   <g id="patch_37">
    <path d="M 247.148308 307.584 
L 251.543631 307.584 
L 251.543631 113.045311 
L 247.148308 113.045311 
z
" clip-path="url(#pcd0b678fb9)" style="fill: #808080"/>
   </g>
   <g id="patch_38">
    <path d="M 252.642462 307.584 
L 257.037785 307.584 
L 257.037785 116.544209 
L 252.642462 116.544209 
z
" clip-path="url(#pcd0b678fb9)" style="fill: #808080"/>
   </g>
   <g id="patch_39">
    <path d="M 258.136615 307.584 
L 262.531938 307.584 
L 262.531938 123.017169 
L 258.136615 123.017169 
z
" clip-path="url(#pcd0b678fb9)" style="fill: #808080"/>
   </g>
   <g id="patch_40">
    <path d="M 263.630769 307.584 
L 268.026092 307.584 
L 268.026092 118.905964 
L 263.630769 118.905964 
z
" clip-path="url(#pcd0b678fb9)" style="fill: #808080"/>
   </g>
   <g id="patch_41">
    <path d="M 269.124923 307.584 
L 273.520246 307.584 
L 273.520246 134.301112 
L 269.124923 134.301112 
z
" clip-path="url(#pcd0b678fb9)" style="fill: #808080"/>
   </g>
   <g id="patch_42">
    <path d="M 274.619077 307.584 
L 279.0144 307.584 
L 279.0144 145.147694 
L 274.619077 145.147694 
z
" clip-path="url(#pcd0b678fb9)" style="fill: #808080"/>
   </g>
   <g id="patch_43">
    <path d="M 280.113231 307.584 
L 284.508554 307.584 
L 284.508554 157.21889 
L 280.113231 157.21889 
z
" clip-path="url(#pcd0b678fb9)" style="fill: #808080"/>
   </g>
   <g id="patch_44">
    <path d="M 285.607385 307.584 
L 290.002708 307.584 
L 290.002708 165.178881 
L 285.607385 165.178881 
z
" clip-path="url(#pcd0b678fb9)" style="fill: #808080"/>
   </g>
   <g id="patch_45">
    <path d="M 291.101538 307.584 
L 295.496862 307.584 
L 295.496862 182.498422 
L 291.101538 182.498422 
z
" clip-path="url(#pcd0b678fb9)" style="fill: #808080"/>
   </g>
   <g id="patch_46">
    <path d="M 296.595692 307.584 
L 300.991015 307.584 
L 300.991015 197.193791 
L 296.595692 197.193791 
z
" clip-path="url(#pcd0b678fb9)" style="fill: #808080"/>
   </g>
   <g id="patch_47">
    <path d="M 302.089846 307.584 
L 306.485169 307.584 
L 306.485169 202.17972 
L 302.089846 202.17972 
z
" clip-path="url(#pcd0b678fb9)" style="fill: #808080"/>
   </g>
   <g id="patch_48">
    <path d="M 307.584 307.584 
L 311.979323 307.584 
L 311.979323 208.390262 
L 307.584 208.390262 
z
" clip-path="url(#pcd0b678fb9)" style="fill: #808080"/>
   </g>
   <g id="patch_49">
    <path d="M 313.078154 307.584 
L 317.473477 307.584 
L 317.473477 223.78541 
L 313.078154 223.78541 
z
" clip-path="url(#pcd0b678fb9)" style="fill: #808080"/>
   </g>
   <g id="patch_50">
    <path d="M 318.572308 307.584 
L 322.967631 307.584 
L 322.967631 246.703187 
L 318.572308 246.703187 
z
" clip-path="url(#pcd0b678fb9)" style="fill: #808080"/>
   </g>
   <g id="patch_51">
    <path d="M 324.066462 307.584 
L 328.461785 307.584 
L 328.461785 258.861855 
L 324.066462 258.861855 
z
" clip-path="url(#pcd0b678fb9)" style="fill: #808080"/>
   </g>
   <g id="patch_52">
    <path d="M 329.560615 307.584 
L 333.955938 307.584 
L 333.955938 267.958988 
L 329.560615 267.958988 
z
" clip-path="url(#pcd0b678fb9)" style="fill: #808080"/>
   </g>
   <g id="patch_53">
    <path d="M 335.054769 307.584 
L 339.450092 307.584 
L 339.450092 273.644696 
L 335.054769 273.644696 
z
" clip-path="url(#pcd0b678fb9)" style="fill: #808080"/>
   </g>
   <g id="patch_54">
    <path d="M 340.548923 307.584 
L 344.944246 307.584 
L 344.944246 284.753695 
L 340.548923 284.753695 
z
" clip-path="url(#pcd0b678fb9)" style="fill: #808080"/>
   </g>
   <g id="patch_55">
    <path d="M 346.043077 307.584 
L 350.4384 307.584 
L 350.4384 297.962032 
L 346.043077 297.962032 
z
" clip-path="url(#pcd0b678fb9)" style="fill: #808080"/>
   </g>
   <g id="patch_56">
    <path d="M 351.537231 307.584 
L 355.932554 307.584 
L 355.932554 303.910158 
L 351.537231 303.910158 
z
" clip-path="url(#pcd0b678fb9)" style="fill: #808080"/>
   </g>
   <g id="patch_57">
    <path d="M 357.031385 307.584 
L 361.426708 307.584 
L 361.426708 306.709276 
L 357.031385 306.709276 
z
" clip-path="url(#pcd0b678fb9)" style="fill: #808080"/>
   </g>
   <g id="patch_58">
    <path d="M 362.525538 307.584 
L 366.920862 307.584 
L 366.920862 307.321583 
L 362.525538 307.321583 
z
" clip-path="url(#pcd0b678fb9)" style="fill: #808080"/>
   </g>
   <g id="patch_59">
    <path d="M 368.019692 307.584 
L 372.415015 307.584 
L 372.415015 307.584 
L 368.019692 307.584 
z
" clip-path="url(#pcd0b678fb9)" style="fill: #808080"/>
   </g>
   <g id="patch_60">
    <path d="M 373.513846 307.584 
L 377.909169 307.584 
L 377.909169 307.496528 
L 373.513846 307.496528 
z
" clip-path="url(#pcd0b678fb9)" style="fill: #808080"/>
   </g>
   <g id="patch_61">
    <path d="M 379.008 307.584 
L 383.403323 307.584 
L 383.403323 307.584 
L 379.008 307.584 
z
" clip-path="url(#pcd0b678fb9)" style="fill: #808080"/>
   </g>
   <g id="patch_62">
    <path d="M 384.502154 307.584 
L 388.897477 307.584 
L 388.897477 307.584 
L 384.502154 307.584 
z
" clip-path="url(#pcd0b678fb9)" style="fill: #808080"/>
   </g>
   <g id="patch_63">
    <path d="M 389.996308 307.584 
L 394.391631 307.584 
L 394.391631 307.584 
L 389.996308 307.584 
z
" clip-path="url(#pcd0b678fb9)" style="fill: #808080"/>
   </g>
   <g id="patch_64">
    <path d="M 395.490462 307.584 
L 399.885785 307.584 
L 399.885785 307.584 
L 395.490462 307.584 
z
" clip-path="url(#pcd0b678fb9)" style="fill: #808080"/>
   </g>
   <g id="patch_65">
    <path d="M 400.984615 307.584 
L 405.379938 307.584 
L 405.379938 307.584 
L 400.984615 307.584 
z
" clip-path="url(#pcd0b678fb9)" style="fill: #808080"/>
   </g>
   <g id="patch_66">
    <path d="M 406.478769 307.584 
L 410.874092 307.584 
L 410.874092 307.584 
L 406.478769 307.584 
z
" clip-path="url(#pcd0b678fb9)" style="fill: #808080"/>
   </g>
   <g id="patch_67">
    <path d="M 411.972923 307.584 
L 416.368246 307.584 
L 416.368246 307.584 
L 411.972923 307.584 
z
" clip-path="url(#pcd0b678fb9)" style="fill: #808080"/>
   </g>
   <g id="patch_68">
    <path d="M 417.467077 307.584 
L 421.8624 307.584 
L 421.8624 307.584 
L 417.467077 307.584 
z
" clip-path="url(#pcd0b678fb9)" style="fill: #808080"/>
   </g>
   <g id="patch_69">
    <path d="M 422.961231 307.584 
L 427.356554 307.584 
L 427.356554 307.584 
L 422.961231 307.584 
z
" clip-path="url(#pcd0b678fb9)" style="fill: #808080"/>
   </g>
   <g id="patch_70">
    <path d="M 428.455385 307.584 
L 432.850708 307.584 
L 432.850708 307.584 
L 428.455385 307.584 
z
" clip-path="url(#pcd0b678fb9)" style="fill: #808080"/>
   </g>
   <g id="patch_71">
    <path d="M 433.949538 307.584 
L 438.344862 307.584 
L 438.344862 307.584 
L 433.949538 307.584 
z
" clip-path="url(#pcd0b678fb9)" style="fill: #808080"/>
   </g>
   <g id="matplotlib.axis_1">
    <g id="xtick_1">
     <g id="line2d_1">
      <path d="M 85.070769 307.584 
L 85.070769 41.472 
" clip-path="url(#pcd0b678fb9)" style="fill: none; stroke: #b0b0b0; stroke-width: 0.8; stroke-linecap: square"/>
     </g>
     <g id="line2d_2">
      <defs>
       <path id="m89b744f486" d="M 0 0 
L 0 3.5 
" style="stroke: #000000; stroke-width: 0.8"/>
      </defs>
      <g>
       <use xlink:href="#m89b744f486" x="85.070769" y="307.584" style="stroke: #000000; stroke-width: 0.8"/>
      </g>
     </g>
     <g id="text_1">
      <!-- −12 -->
      <g transform="translate(74.123425 324.30525) scale(0.14 -0.14)">
       <defs>
        <path id="TimesNewRomanPSMT-2212" d="M 3484 2000 
L 116 2000 
L 116 2256 
L 3484 2256 
L 3484 2000 
z
" transform="scale(0.015625)"/>
        <path id="TimesNewRomanPSMT-31" d="M 750 3822 
L 1781 4325 
L 1884 4325 
L 1884 747 
Q 1884 391 1914 303 
Q 1944 216 2037 169 
Q 2131 122 2419 116 
L 2419 0 
L 825 0 
L 825 116 
Q 1125 122 1212 167 
Q 1300 213 1334 289 
Q 1369 366 1369 747 
L 1369 3034 
Q 1369 3497 1338 3628 
Q 1316 3728 1258 3775 
Q 1200 3822 1119 3822 
Q 1003 3822 797 3725 
L 750 3822 
z
" transform="scale(0.015625)"/>
        <path id="TimesNewRomanPSMT-32" d="M 2934 816 
L 2638 0 
L 138 0 
L 138 116 
Q 1241 1122 1691 1759 
Q 2141 2397 2141 2925 
Q 2141 3328 1894 3587 
Q 1647 3847 1303 3847 
Q 991 3847 742 3664 
Q 494 3481 375 3128 
L 259 3128 
Q 338 3706 661 4015 
Q 984 4325 1469 4325 
Q 1984 4325 2329 3994 
Q 2675 3663 2675 3213 
Q 2675 2891 2525 2569 
Q 2294 2063 1775 1497 
Q 997 647 803 472 
L 1909 472 
Q 2247 472 2383 497 
Q 2519 522 2628 598 
Q 2738 675 2819 816 
L 2934 816 
z
" transform="scale(0.015625)"/>
       </defs>
       <use xlink:href="#TimesNewRomanPSMT-2212"/>
       <use xlink:href="#TimesNewRomanPSMT-31" x="56.396484"/>
       <use xlink:href="#TimesNewRomanPSMT-32" x="106.396484"/>
      </g>
     </g>
    </g>
    <g id="xtick_2">
     <g id="line2d_3">
      <path d="M 140.012308 307.584 
L 140.012308 41.472 
" clip-path="url(#pcd0b678fb9)" style="fill: none; stroke: #b0b0b0; stroke-width: 0.8; stroke-linecap: square"/>
     </g>
     <g id="line2d_4">
      <g>
       <use xlink:href="#m89b744f486" x="140.012308" y="307.584" style="stroke: #000000; stroke-width: 0.8"/>
      </g>
     </g>
     <g id="text_2">
      <!-- −10 -->
      <g transform="translate(129.064964 324.30525) scale(0.14 -0.14)">
       <defs>
        <path id="TimesNewRomanPSMT-30" d="M 231 2094 
Q 231 2819 450 3342 
Q 669 3866 1031 4122 
Q 1313 4325 1613 4325 
Q 2100 4325 2488 3828 
Q 2972 3213 2972 2159 
Q 2972 1422 2759 906 
Q 2547 391 2217 158 
Q 1888 -75 1581 -75 
Q 975 -75 572 641 
Q 231 1244 231 2094 
z
M 844 2016 
Q 844 1141 1059 588 
Q 1238 122 1591 122 
Q 1759 122 1940 273 
Q 2122 425 2216 781 
Q 2359 1319 2359 2297 
Q 2359 3022 2209 3506 
Q 2097 3866 1919 4016 
Q 1791 4119 1609 4119 
Q 1397 4119 1231 3928 
Q 1006 3669 925 3112 
Q 844 2556 844 2016 
z
" transform="scale(0.015625)"/>
       </defs>
       <use xlink:href="#TimesNewRomanPSMT-2212"/>
       <use xlink:href="#TimesNewRomanPSMT-31" x="56.396484"/>
       <use xlink:href="#TimesNewRomanPSMT-30" x="106.396484"/>
      </g>
     </g>
    </g>
    <g id="xtick_3">
     <g id="line2d_5">
      <path d="M 194.953846 307.584 
L 194.953846 41.472 
" clip-path="url(#pcd0b678fb9)" style="fill: none; stroke: #b0b0b0; stroke-width: 0.8; stroke-linecap: square"/>
     </g>
     <g id="line2d_6">
      <g>
       <use xlink:href="#m89b744f486" x="194.953846" y="307.584" style="stroke: #000000; stroke-width: 0.8"/>
      </g>
     </g>
     <g id="text_3">
      <!-- −8 -->
      <g transform="translate(187.506502 324.30525) scale(0.14 -0.14)">
       <defs>
        <path id="TimesNewRomanPSMT-38" d="M 1228 2134 
Q 725 2547 579 2797 
Q 434 3047 434 3316 
Q 434 3728 753 4026 
Q 1072 4325 1600 4325 
Q 2113 4325 2425 4047 
Q 2738 3769 2738 3413 
Q 2738 3175 2569 2928 
Q 2400 2681 1866 2347 
Q 2416 1922 2594 1678 
Q 2831 1359 2831 1006 
Q 2831 559 2490 242 
Q 2150 -75 1597 -75 
Q 994 -75 656 303 
Q 388 606 388 966 
Q 388 1247 577 1523 
Q 766 1800 1228 2134 
z
M 1719 2469 
Q 2094 2806 2194 3001 
Q 2294 3197 2294 3444 
Q 2294 3772 2109 3958 
Q 1925 4144 1606 4144 
Q 1288 4144 1088 3959 
Q 888 3775 888 3528 
Q 888 3366 970 3203 
Q 1053 3041 1206 2894 
L 1719 2469 
z
M 1375 2016 
Q 1116 1797 991 1539 
Q 866 1281 866 981 
Q 866 578 1086 336 
Q 1306 94 1647 94 
Q 1984 94 2187 284 
Q 2391 475 2391 747 
Q 2391 972 2272 1150 
Q 2050 1481 1375 2016 
z
" transform="scale(0.015625)"/>
       </defs>
       <use xlink:href="#TimesNewRomanPSMT-2212"/>
       <use xlink:href="#TimesNewRomanPSMT-38" x="56.396484"/>
      </g>
     </g>
    </g>
    <g id="xtick_4">
     <g id="line2d_7">
      <path d="M 249.895385 307.584 
L 249.895385 41.472 
" clip-path="url(#pcd0b678fb9)" style="fill: none; stroke: #b0b0b0; stroke-width: 0.8; stroke-linecap: square"/>
     </g>
     <g id="line2d_8">
      <g>
       <use xlink:href="#m89b744f486" x="249.895385" y="307.584" style="stroke: #000000; stroke-width: 0.8"/>
      </g>
     </g>
     <g id="text_4">
      <!-- −6 -->
      <g transform="translate(242.448041 324.30525) scale(0.14 -0.14)">
       <defs>
        <path id="TimesNewRomanPSMT-36" d="M 2869 4325 
L 2869 4209 
Q 2456 4169 2195 4045 
Q 1934 3922 1679 3669 
Q 1425 3416 1258 3105 
Q 1091 2794 978 2366 
Q 1428 2675 1881 2675 
Q 2316 2675 2634 2325 
Q 2953 1975 2953 1425 
Q 2953 894 2631 456 
Q 2244 -75 1606 -75 
Q 1172 -75 869 213 
Q 275 772 275 1663 
Q 275 2231 503 2743 
Q 731 3256 1154 3653 
Q 1578 4050 1965 4187 
Q 2353 4325 2688 4325 
L 2869 4325 
z
M 925 2138 
Q 869 1716 869 1456 
Q 869 1156 980 804 
Q 1091 453 1309 247 
Q 1469 100 1697 100 
Q 1969 100 2183 356 
Q 2397 613 2397 1088 
Q 2397 1622 2184 2012 
Q 1972 2403 1581 2403 
Q 1463 2403 1327 2353 
Q 1191 2303 925 2138 
z
" transform="scale(0.015625)"/>
       </defs>
       <use xlink:href="#TimesNewRomanPSMT-2212"/>
       <use xlink:href="#TimesNewRomanPSMT-36" x="56.396484"/>
      </g>
     </g>
    </g>
    <g id="xtick_5">
     <g id="line2d_9">
      <path d="M 304.836923 307.584 
L 304.836923 41.472 
" clip-path="url(#pcd0b678fb9)" style="fill: none; stroke: #b0b0b0; stroke-width: 0.8; stroke-linecap: square"/>
     </g>
     <g id="line2d_10">
      <g>
       <use xlink:href="#m89b744f486" x="304.836923" y="307.584" style="stroke: #000000; stroke-width: 0.8"/>
      </g>
     </g>
     <g id="text_5">
      <!-- −4 -->
      <g transform="translate(297.389579 324.30525) scale(0.14 -0.14)">
       <defs>
        <path id="TimesNewRomanPSMT-34" d="M 2978 1563 
L 2978 1119 
L 2409 1119 
L 2409 0 
L 1894 0 
L 1894 1119 
L 100 1119 
L 100 1519 
L 2066 4325 
L 2409 4325 
L 2409 1563 
L 2978 1563 
z
M 1894 1563 
L 1894 3666 
L 406 1563 
L 1894 1563 
z
" transform="scale(0.015625)"/>
       </defs>
       <use xlink:href="#TimesNewRomanPSMT-2212"/>
       <use xlink:href="#TimesNewRomanPSMT-34" x="56.396484"/>
      </g>
     </g>
    </g>
    <g id="xtick_6">
     <g id="line2d_11">
      <path d="M 359.778462 307.584 
L 359.778462 41.472 
" clip-path="url(#pcd0b678fb9)" style="fill: none; stroke: #b0b0b0; stroke-width: 0.8; stroke-linecap: square"/>
     </g>
     <g id="line2d_12">
      <g>
       <use xlink:href="#m89b744f486" x="359.778462" y="307.584" style="stroke: #000000; stroke-width: 0.8"/>
      </g>
     </g>
     <g id="text_6">
      <!-- −2 -->
      <g transform="translate(352.331118 324.30525) scale(0.14 -0.14)">
       <use xlink:href="#TimesNewRomanPSMT-2212"/>
       <use xlink:href="#TimesNewRomanPSMT-32" x="56.396484"/>
      </g>
     </g>
    </g>
    <g id="xtick_7">
     <g id="line2d_13">
      <path d="M 414.72 307.584 
L 414.72 41.472 
" clip-path="url(#pcd0b678fb9)" style="fill: none; stroke: #b0b0b0; stroke-width: 0.8; stroke-linecap: square"/>
     </g>
     <g id="line2d_14">
      <g>
       <use xlink:href="#m89b744f486" x="414.72" y="307.584" style="stroke: #000000; stroke-width: 0.8"/>
      </g>
     </g>
     <g id="text_7">
      <!-- 0 -->
      <g transform="translate(411.22 324.30525) scale(0.14 -0.14)">
       <use xlink:href="#TimesNewRomanPSMT-30"/>
      </g>
     </g>
    </g>
    <g id="text_8">
     <!-- NND, log$_{10} \eta$ -->
     <g transform="translate(197.59 341.099937) scale(0.14 -0.14)">
      <defs>
       <path id="TimesNewRomanPSMT-4e" d="M -84 4238 
L 1066 4238 
L 3656 1059 
L 3656 3503 
Q 3656 3894 3569 3991 
Q 3453 4122 3203 4122 
L 3056 4122 
L 3056 4238 
L 4531 4238 
L 4531 4122 
L 4381 4122 
Q 4113 4122 4000 3959 
Q 3931 3859 3931 3503 
L 3931 -69 
L 3819 -69 
L 1025 3344 
L 1025 734 
Q 1025 344 1109 247 
Q 1228 116 1475 116 
L 1625 116 
L 1625 0 
L 150 0 
L 150 116 
L 297 116 
Q 569 116 681 278 
Q 750 378 750 734 
L 750 3681 
Q 566 3897 470 3965 
Q 375 4034 191 4094 
Q 100 4122 -84 4122 
L -84 4238 
z
" transform="scale(0.015625)"/>
       <path id="TimesNewRomanPSMT-44" d="M 109 0 
L 109 116 
L 269 116 
Q 538 116 650 288 
Q 719 391 719 750 
L 719 3488 
Q 719 3884 631 3984 
Q 509 4122 269 4122 
L 109 4122 
L 109 4238 
L 1834 4238 
Q 2784 4238 3279 4022 
Q 3775 3806 4076 3303 
Q 4378 2800 4378 2141 
Q 4378 1256 3841 663 
Q 3238 0 2003 0 
L 109 0 
z
M 1319 306 
Q 1716 219 1984 219 
Q 2709 219 3187 728 
Q 3666 1238 3666 2109 
Q 3666 2988 3187 3494 
Q 2709 4000 1959 4000 
Q 1678 4000 1319 3909 
L 1319 306 
z
" transform="scale(0.015625)"/>
       <path id="TimesNewRomanPSMT-2c" d="M 344 -1066 
L 344 -928 
Q 666 -822 842 -598 
Q 1019 -375 1019 -125 
Q 1019 -66 991 -25 
Q 969 3 947 3 
Q 913 3 797 -59 
Q 741 -88 678 -88 
Q 525 -88 434 3 
Q 344 94 344 253 
Q 344 406 461 515 
Q 578 625 747 625 
Q 953 625 1114 445 
Q 1275 266 1275 -31 
Q 1275 -353 1051 -629 
Q 828 -906 344 -1066 
z
" transform="scale(0.015625)"/>
       <path id="TimesNewRomanPSMT-20" transform="scale(0.015625)"/>
       <path id="TimesNewRomanPSMT-6c" d="M 1184 4444 
L 1184 647 
Q 1184 378 1223 290 
Q 1263 203 1344 158 
Q 1425 113 1647 113 
L 1647 0 
L 244 0 
L 244 113 
Q 441 113 512 153 
Q 584 194 625 287 
Q 666 381 666 647 
L 666 3247 
Q 666 3731 644 3842 
Q 622 3953 573 3993 
Q 525 4034 450 4034 
Q 369 4034 244 3984 
L 191 4094 
L 1044 4444 
L 1184 4444 
z
" transform="scale(0.015625)"/>
       <path id="TimesNewRomanPSMT-6f" d="M 1600 2947 
Q 2250 2947 2644 2453 
Q 2978 2031 2978 1484 
Q 2978 1100 2793 706 
Q 2609 313 2286 112 
Q 1963 -88 1566 -88 
Q 919 -88 538 428 
Q 216 863 216 1403 
Q 216 1797 411 2186 
Q 606 2575 925 2761 
Q 1244 2947 1600 2947 
z
M 1503 2744 
Q 1338 2744 1170 2645 
Q 1003 2547 900 2300 
Q 797 2053 797 1666 
Q 797 1041 1045 587 
Q 1294 134 1700 134 
Q 2003 134 2200 384 
Q 2397 634 2397 1244 
Q 2397 2006 2069 2444 
Q 1847 2744 1503 2744 
z
" transform="scale(0.015625)"/>
       <path id="TimesNewRomanPSMT-67" d="M 966 1044 
Q 703 1172 562 1401 
Q 422 1631 422 1909 
Q 422 2334 742 2640 
Q 1063 2947 1563 2947 
Q 1972 2947 2272 2747 
L 2878 2747 
Q 3013 2747 3034 2739 
Q 3056 2731 3066 2713 
Q 3084 2684 3084 2613 
Q 3084 2531 3069 2500 
Q 3059 2484 3036 2475 
Q 3013 2466 2878 2466 
L 2506 2466 
Q 2681 2241 2681 1891 
Q 2681 1491 2375 1206 
Q 2069 922 1553 922 
Q 1341 922 1119 984 
Q 981 866 932 777 
Q 884 688 884 625 
Q 884 572 936 522 
Q 988 472 1138 450 
Q 1225 438 1575 428 
Q 2219 413 2409 384 
Q 2700 344 2873 169 
Q 3047 -6 3047 -263 
Q 3047 -616 2716 -925 
Q 2228 -1381 1444 -1381 
Q 841 -1381 425 -1109 
Q 191 -953 191 -784 
Q 191 -709 225 -634 
Q 278 -519 444 -313 
Q 466 -284 763 25 
Q 600 122 533 198 
Q 466 275 466 372 
Q 466 481 555 628 
Q 644 775 966 1044 
z
M 1509 2797 
Q 1278 2797 1122 2612 
Q 966 2428 966 2047 
Q 966 1553 1178 1281 
Q 1341 1075 1591 1075 
Q 1828 1075 1981 1253 
Q 2134 1431 2134 1813 
Q 2134 2309 1919 2591 
Q 1759 2797 1509 2797 
z
M 934 0 
Q 788 -159 713 -296 
Q 638 -434 638 -550 
Q 638 -700 819 -813 
Q 1131 -1006 1722 -1006 
Q 2284 -1006 2551 -807 
Q 2819 -609 2819 -384 
Q 2819 -222 2659 -153 
Q 2497 -84 2016 -72 
Q 1313 -53 934 0 
z
" transform="scale(0.015625)"/>
       <path id="DejaVuSans-31" d="M 794 531 
L 1825 531 
L 1825 4091 
L 703 3866 
L 703 4441 
L 1819 4666 
L 2450 4666 
L 2450 531 
L 3481 531 
L 3481 0 
L 794 0 
L 794 531 
z
" transform="scale(0.015625)"/>
       <path id="DejaVuSans-30" d="M 2034 4250 
Q 1547 4250 1301 3770 
Q 1056 3291 1056 2328 
Q 1056 1369 1301 889 
Q 1547 409 2034 409 
Q 2525 409 2770 889 
Q 3016 1369 3016 2328 
Q 3016 3291 2770 3770 
Q 2525 4250 2034 4250 
z
M 2034 4750 
Q 2819 4750 3233 4129 
Q 3647 3509 3647 2328 
Q 3647 1150 3233 529 
Q 2819 -91 2034 -91 
Q 1250 -91 836 529 
Q 422 1150 422 2328 
Q 422 3509 836 4129 
Q 1250 4750 2034 4750 
z
" transform="scale(0.015625)"/>
       <path id="DejaVuSans-Oblique-3b7" d="M 3703 2113 
L 3034 -1331 
L 2459 -1331 
L 3125 2094 
Q 3222 2591 3075 2838 
Q 2931 3084 2544 3084 
Q 2078 3084 1750 2788 
Q 1425 2491 1325 1978 
L 941 0 
L 363 0 
L 1044 3500 
L 1622 3500 
L 1516 2956 
Q 1781 3272 2094 3428 
Q 2403 3584 2769 3584 
Q 3372 3584 3609 3213 
Q 3844 2838 3703 2113 
z
" transform="scale(0.015625)"/>
      </defs>
      <use xlink:href="#TimesNewRomanPSMT-4e" transform="translate(0 0.5625)"/>
      <use xlink:href="#TimesNewRomanPSMT-4e" transform="translate(72.216797 0.5625)"/>
      <use xlink:href="#TimesNewRomanPSMT-44" transform="translate(144.433594 0.5625)"/>
      <use xlink:href="#TimesNewRomanPSMT-2c" transform="translate(216.650391 0.5625)"/>
      <use xlink:href="#TimesNewRomanPSMT-20" transform="translate(241.650391 0.5625)"/>
      <use xlink:href="#TimesNewRomanPSMT-6c" transform="translate(266.650391 0.5625)"/>
      <use xlink:href="#TimesNewRomanPSMT-6f" transform="translate(294.433594 0.5625)"/>
      <use xlink:href="#TimesNewRomanPSMT-67" transform="translate(344.433594 0.5625)"/>
      <use xlink:href="#DejaVuSans-31" transform="translate(395.390625 -15.84375) scale(0.7)"/>
      <use xlink:href="#DejaVuSans-30" transform="translate(439.926758 -15.84375) scale(0.7)"/>
      <use xlink:href="#DejaVuSans-Oblique-3b7" transform="translate(487.197266 0.5625)"/>
     </g>
    </g>
   </g>
   <g id="matplotlib.axis_2">
    <g id="ytick_1">
     <g id="line2d_15">
      <path d="M 57.6 307.584 
L 414.72 307.584 
" clip-path="url(#pcd0b678fb9)" style="fill: none; stroke: #b0b0b0; stroke-width: 0.8; stroke-linecap: square"/>
     </g>
     <g id="line2d_16">
      <defs>
       <path id="m3df3a39b2c" d="M 0 0 
L -3.5 0 
" style="stroke: #000000; stroke-width: 0.8"/>
      </defs>
      <g>
       <use xlink:href="#m3df3a39b2c" x="57.6" y="307.584" style="stroke: #000000; stroke-width: 0.8"/>
      </g>
     </g>
     <g id="text_9">
      <!-- 0.00 -->
      <g transform="translate(26.1 312.444625) scale(0.14 -0.14)">
       <defs>
        <path id="TimesNewRomanPSMT-2e" d="M 800 606 
Q 947 606 1047 504 
Q 1147 403 1147 259 
Q 1147 116 1045 14 
Q 944 -88 800 -88 
Q 656 -88 554 14 
Q 453 116 453 259 
Q 453 406 554 506 
Q 656 606 800 606 
z
" transform="scale(0.015625)"/>
       </defs>
       <use xlink:href="#TimesNewRomanPSMT-30"/>
       <use xlink:href="#TimesNewRomanPSMT-2e" x="50"/>
       <use xlink:href="#TimesNewRomanPSMT-30" x="75"/>
       <use xlink:href="#TimesNewRomanPSMT-30" x="125"/>
      </g>
     </g>
    </g>
    <g id="ytick_2">
     <g id="line2d_17">
      <path d="M 57.6 248.937233 
L 414.72 248.937233 
" clip-path="url(#pcd0b678fb9)" style="fill: none; stroke: #b0b0b0; stroke-width: 0.8; stroke-linecap: square"/>
     </g>
     <g id="line2d_18">
      <g>
       <use xlink:href="#m3df3a39b2c" x="57.6" y="248.937233" style="stroke: #000000; stroke-width: 0.8"/>
      </g>
     </g>
     <g id="text_10">
      <!-- 0.05 -->
      <g transform="translate(26.1 253.797858) scale(0.14 -0.14)">
       <defs>
        <path id="TimesNewRomanPSMT-35" d="M 2778 4238 
L 2534 3706 
L 1259 3706 
L 981 3138 
Q 1809 3016 2294 2522 
Q 2709 2097 2709 1522 
Q 2709 1188 2573 903 
Q 2438 619 2231 419 
Q 2025 219 1772 97 
Q 1413 -75 1034 -75 
Q 653 -75 479 54 
Q 306 184 306 341 
Q 306 428 378 495 
Q 450 563 559 563 
Q 641 563 702 538 
Q 763 513 909 409 
Q 1144 247 1384 247 
Q 1750 247 2026 523 
Q 2303 800 2303 1197 
Q 2303 1581 2056 1914 
Q 1809 2247 1375 2428 
Q 1034 2569 447 2591 
L 1259 4238 
L 2778 4238 
z
" transform="scale(0.015625)"/>
       </defs>
       <use xlink:href="#TimesNewRomanPSMT-30"/>
       <use xlink:href="#TimesNewRomanPSMT-2e" x="50"/>
       <use xlink:href="#TimesNewRomanPSMT-30" x="75"/>
       <use xlink:href="#TimesNewRomanPSMT-35" x="125"/>
      </g>
     </g>
    </g>
    <g id="ytick_3">
     <g id="line2d_19">
      <path d="M 57.6 190.290467 
L 414.72 190.290467 
" clip-path="url(#pcd0b678fb9)" style="fill: none; stroke: #b0b0b0; stroke-width: 0.8; stroke-linecap: square"/>
     </g>
     <g id="line2d_20">
      <g>
       <use xlink:href="#m3df3a39b2c" x="57.6" y="190.290467" style="stroke: #000000; stroke-width: 0.8"/>
      </g>
     </g>
     <g id="text_11">
      <!-- 0.10 -->
      <g transform="translate(26.1 195.151092) scale(0.14 -0.14)">
       <use xlink:href="#TimesNewRomanPSMT-30"/>
       <use xlink:href="#TimesNewRomanPSMT-2e" x="50"/>
       <use xlink:href="#TimesNewRomanPSMT-31" x="75"/>
       <use xlink:href="#TimesNewRomanPSMT-30" x="125"/>
      </g>
     </g>
    </g>
    <g id="ytick_4">
     <g id="line2d_21">
      <path d="M 57.6 131.6437 
L 414.72 131.6437 
" clip-path="url(#pcd0b678fb9)" style="fill: none; stroke: #b0b0b0; stroke-width: 0.8; stroke-linecap: square"/>
     </g>
     <g id="line2d_22">
      <g>
       <use xlink:href="#m3df3a39b2c" x="57.6" y="131.6437" style="stroke: #000000; stroke-width: 0.8"/>
      </g>
     </g>
     <g id="text_12">
      <!-- 0.15 -->
      <g transform="translate(26.1 136.504325) scale(0.14 -0.14)">
       <use xlink:href="#TimesNewRomanPSMT-30"/>
       <use xlink:href="#TimesNewRomanPSMT-2e" x="50"/>
       <use xlink:href="#TimesNewRomanPSMT-31" x="75"/>
       <use xlink:href="#TimesNewRomanPSMT-35" x="125"/>
      </g>
     </g>
    </g>
    <g id="ytick_5">
     <g id="line2d_23">
      <path d="M 57.6 72.996933 
L 414.72 72.996933 
" clip-path="url(#pcd0b678fb9)" style="fill: none; stroke: #b0b0b0; stroke-width: 0.8; stroke-linecap: square"/>
     </g>
     <g id="line2d_24">
      <g>
       <use xlink:href="#m3df3a39b2c" x="57.6" y="72.996933" style="stroke: #000000; stroke-width: 0.8"/>
      </g>
     </g>
     <g id="text_13">
      <!-- 0.20 -->
      <g transform="translate(26.1 77.857558) scale(0.14 -0.14)">
       <use xlink:href="#TimesNewRomanPSMT-30"/>
       <use xlink:href="#TimesNewRomanPSMT-2e" x="50"/>
       <use xlink:href="#TimesNewRomanPSMT-32" x="75"/>
       <use xlink:href="#TimesNewRomanPSMT-30" x="125"/>
      </g>
     </g>
    </g>
    <g id="text_14">
     <!-- Number of Events -->
     <g transform="translate(19.105312 225.848938) rotate(-90) scale(0.14 -0.14)">
      <defs>
       <path id="TimesNewRomanPSMT-75" d="M 2709 2863 
L 2709 1128 
Q 2709 631 2732 520 
Q 2756 409 2807 365 
Q 2859 322 2928 322 
Q 3025 322 3147 375 
L 3191 266 
L 2334 -88 
L 2194 -88 
L 2194 519 
Q 1825 119 1631 15 
Q 1438 -88 1222 -88 
Q 981 -88 804 51 
Q 628 191 559 409 
Q 491 628 491 1028 
L 491 2306 
Q 491 2509 447 2587 
Q 403 2666 317 2708 
Q 231 2750 6 2747 
L 6 2863 
L 1009 2863 
L 1009 947 
Q 1009 547 1148 422 
Q 1288 297 1484 297 
Q 1619 297 1789 381 
Q 1959 466 2194 703 
L 2194 2325 
Q 2194 2569 2105 2655 
Q 2016 2741 1734 2747 
L 1734 2863 
L 2709 2863 
z
" transform="scale(0.015625)"/>
       <path id="TimesNewRomanPSMT-6d" d="M 1050 2338 
Q 1363 2650 1419 2697 
Q 1559 2816 1721 2881 
Q 1884 2947 2044 2947 
Q 2313 2947 2506 2790 
Q 2700 2634 2766 2338 
Q 3088 2713 3309 2830 
Q 3531 2947 3766 2947 
Q 3994 2947 4170 2830 
Q 4347 2713 4450 2447 
Q 4519 2266 4519 1878 
L 4519 647 
Q 4519 378 4559 278 
Q 4591 209 4675 161 
Q 4759 113 4950 113 
L 4950 0 
L 3538 0 
L 3538 113 
L 3597 113 
Q 3781 113 3884 184 
Q 3956 234 3988 344 
Q 4000 397 4000 647 
L 4000 1878 
Q 4000 2228 3916 2372 
Q 3794 2572 3525 2572 
Q 3359 2572 3192 2489 
Q 3025 2406 2788 2181 
L 2781 2147 
L 2788 2013 
L 2788 647 
Q 2788 353 2820 281 
Q 2853 209 2943 161 
Q 3034 113 3253 113 
L 3253 0 
L 1806 0 
L 1806 113 
Q 2044 113 2133 169 
Q 2222 225 2256 338 
Q 2272 391 2272 647 
L 2272 1878 
Q 2272 2228 2169 2381 
Q 2031 2581 1784 2581 
Q 1616 2581 1450 2491 
Q 1191 2353 1050 2181 
L 1050 647 
Q 1050 366 1089 281 
Q 1128 197 1204 155 
Q 1281 113 1516 113 
L 1516 0 
L 100 0 
L 100 113 
Q 297 113 375 155 
Q 453 197 493 289 
Q 534 381 534 647 
L 534 1741 
Q 534 2213 506 2350 
Q 484 2453 437 2492 
Q 391 2531 309 2531 
Q 222 2531 100 2484 
L 53 2597 
L 916 2947 
L 1050 2947 
L 1050 2338 
z
" transform="scale(0.015625)"/>
       <path id="TimesNewRomanPSMT-62" d="M 984 2369 
Q 1400 2947 1881 2947 
Q 2322 2947 2650 2570 
Q 2978 2194 2978 1541 
Q 2978 778 2472 313 
Q 2038 -88 1503 -88 
Q 1253 -88 995 3 
Q 738 94 469 275 
L 469 3241 
Q 469 3728 445 3840 
Q 422 3953 372 3993 
Q 322 4034 247 4034 
Q 159 4034 28 3984 
L -16 4094 
L 844 4444 
L 984 4444 
L 984 2369 
z
M 984 2169 
L 984 456 
Q 1144 300 1314 220 
Q 1484 141 1663 141 
Q 1947 141 2192 453 
Q 2438 766 2438 1363 
Q 2438 1913 2192 2208 
Q 1947 2503 1634 2503 
Q 1469 2503 1303 2419 
Q 1178 2356 984 2169 
z
" transform="scale(0.015625)"/>
       <path id="TimesNewRomanPSMT-65" d="M 681 1784 
Q 678 1147 991 784 
Q 1303 422 1725 422 
Q 2006 422 2214 576 
Q 2422 731 2563 1106 
L 2659 1044 
Q 2594 616 2278 264 
Q 1963 -88 1488 -88 
Q 972 -88 605 314 
Q 238 716 238 1394 
Q 238 2128 614 2539 
Q 991 2950 1559 2950 
Q 2041 2950 2350 2633 
Q 2659 2316 2659 1784 
L 681 1784 
z
M 681 1966 
L 2006 1966 
Q 1991 2241 1941 2353 
Q 1863 2528 1708 2628 
Q 1553 2728 1384 2728 
Q 1125 2728 920 2526 
Q 716 2325 681 1966 
z
" transform="scale(0.015625)"/>
       <path id="TimesNewRomanPSMT-72" d="M 1038 2947 
L 1038 2303 
Q 1397 2947 1775 2947 
Q 1947 2947 2059 2842 
Q 2172 2738 2172 2600 
Q 2172 2478 2090 2393 
Q 2009 2309 1897 2309 
Q 1788 2309 1652 2417 
Q 1516 2525 1450 2525 
Q 1394 2525 1328 2463 
Q 1188 2334 1038 2041 
L 1038 669 
Q 1038 431 1097 309 
Q 1138 225 1241 169 
Q 1344 113 1538 113 
L 1538 0 
L 72 0 
L 72 113 
Q 291 113 397 181 
Q 475 231 506 341 
Q 522 394 522 644 
L 522 1753 
Q 522 2253 501 2348 
Q 481 2444 426 2487 
Q 372 2531 291 2531 
Q 194 2531 72 2484 
L 41 2597 
L 906 2947 
L 1038 2947 
z
" transform="scale(0.015625)"/>
       <path id="TimesNewRomanPSMT-66" d="M 1319 2638 
L 1319 756 
Q 1319 356 1406 250 
Q 1522 113 1716 113 
L 1975 113 
L 1975 0 
L 266 0 
L 266 113 
L 394 113 
Q 519 113 622 175 
Q 725 238 764 344 
Q 803 450 803 756 
L 803 2638 
L 247 2638 
L 247 2863 
L 803 2863 
L 803 3050 
Q 803 3478 940 3775 
Q 1078 4072 1361 4255 
Q 1644 4438 1997 4438 
Q 2325 4438 2600 4225 
Q 2781 4084 2781 3909 
Q 2781 3816 2700 3733 
Q 2619 3650 2525 3650 
Q 2453 3650 2373 3701 
Q 2294 3753 2178 3923 
Q 2063 4094 1966 4153 
Q 1869 4213 1750 4213 
Q 1606 4213 1506 4136 
Q 1406 4059 1362 3898 
Q 1319 3738 1319 3069 
L 1319 2863 
L 2056 2863 
L 2056 2638 
L 1319 2638 
z
" transform="scale(0.015625)"/>
       <path id="TimesNewRomanPSMT-45" d="M 1338 4006 
L 1338 2331 
L 2269 2331 
Q 2631 2331 2753 2441 
Q 2916 2584 2934 2947 
L 3050 2947 
L 3050 1472 
L 2934 1472 
Q 2891 1781 2847 1869 
Q 2791 1978 2662 2040 
Q 2534 2103 2269 2103 
L 1338 2103 
L 1338 706 
Q 1338 425 1363 364 
Q 1388 303 1450 267 
Q 1513 231 1688 231 
L 2406 231 
Q 2766 231 2928 281 
Q 3091 331 3241 478 
Q 3434 672 3638 1063 
L 3763 1063 
L 3397 0 
L 131 0 
L 131 116 
L 281 116 
Q 431 116 566 188 
Q 666 238 702 338 
Q 738 438 738 747 
L 738 3500 
Q 738 3903 656 3997 
Q 544 4122 281 4122 
L 131 4122 
L 131 4238 
L 3397 4238 
L 3444 3309 
L 3322 3309 
Q 3256 3644 3176 3769 
Q 3097 3894 2941 3959 
Q 2816 4006 2500 4006 
L 1338 4006 
z
" transform="scale(0.015625)"/>
       <path id="TimesNewRomanPSMT-76" d="M 53 2863 
L 1400 2863 
L 1400 2747 
L 1313 2747 
Q 1191 2747 1127 2687 
Q 1063 2628 1063 2528 
Q 1063 2419 1128 2269 
L 1794 688 
L 2463 2328 
Q 2534 2503 2534 2594 
Q 2534 2638 2509 2666 
Q 2475 2713 2422 2730 
Q 2369 2747 2206 2747 
L 2206 2863 
L 3141 2863 
L 3141 2747 
Q 2978 2734 2916 2681 
Q 2806 2588 2719 2369 
L 1703 -88 
L 1575 -88 
L 553 2328 
Q 484 2497 421 2570 
Q 359 2644 263 2694 
Q 209 2722 53 2747 
L 53 2863 
z
" transform="scale(0.015625)"/>
       <path id="TimesNewRomanPSMT-6e" d="M 1034 2341 
Q 1538 2947 1994 2947 
Q 2228 2947 2397 2830 
Q 2566 2713 2666 2444 
Q 2734 2256 2734 1869 
L 2734 647 
Q 2734 375 2778 278 
Q 2813 200 2889 156 
Q 2966 113 3172 113 
L 3172 0 
L 1756 0 
L 1756 113 
L 1816 113 
Q 2016 113 2095 173 
Q 2175 234 2206 353 
Q 2219 400 2219 647 
L 2219 1819 
Q 2219 2209 2117 2386 
Q 2016 2563 1775 2563 
Q 1403 2563 1034 2156 
L 1034 647 
Q 1034 356 1069 288 
Q 1113 197 1189 155 
Q 1266 113 1500 113 
L 1500 0 
L 84 0 
L 84 113 
L 147 113 
Q 366 113 442 223 
Q 519 334 519 647 
L 519 1709 
Q 519 2225 495 2337 
Q 472 2450 423 2490 
Q 375 2531 294 2531 
Q 206 2531 84 2484 
L 38 2597 
L 900 2947 
L 1034 2947 
L 1034 2341 
z
" transform="scale(0.015625)"/>
       <path id="TimesNewRomanPSMT-74" d="M 1031 3803 
L 1031 2863 
L 1700 2863 
L 1700 2644 
L 1031 2644 
L 1031 788 
Q 1031 509 1111 412 
Q 1191 316 1316 316 
Q 1419 316 1516 380 
Q 1613 444 1666 569 
L 1788 569 
Q 1678 263 1478 108 
Q 1278 -47 1066 -47 
Q 922 -47 784 33 
Q 647 113 581 261 
Q 516 409 516 719 
L 516 2644 
L 63 2644 
L 63 2747 
Q 234 2816 414 2980 
Q 594 3144 734 3369 
Q 806 3488 934 3803 
L 1031 3803 
z
" transform="scale(0.015625)"/>
       <path id="TimesNewRomanPSMT-73" d="M 2050 2947 
L 2050 1972 
L 1947 1972 
Q 1828 2431 1642 2597 
Q 1456 2763 1169 2763 
Q 950 2763 815 2647 
Q 681 2531 681 2391 
Q 681 2216 781 2091 
Q 878 1963 1175 1819 
L 1631 1597 
Q 2266 1288 2266 781 
Q 2266 391 1970 151 
Q 1675 -88 1309 -88 
Q 1047 -88 709 6 
Q 606 38 541 38 
Q 469 38 428 -44 
L 325 -44 
L 325 978 
L 428 978 
Q 516 541 762 319 
Q 1009 97 1316 97 
Q 1531 97 1667 223 
Q 1803 350 1803 528 
Q 1803 744 1651 891 
Q 1500 1038 1047 1263 
Q 594 1488 453 1669 
Q 313 1847 313 2119 
Q 313 2472 555 2709 
Q 797 2947 1181 2947 
Q 1350 2947 1591 2875 
Q 1750 2828 1803 2828 
Q 1853 2828 1881 2850 
Q 1909 2872 1947 2947 
L 2050 2947 
z
" transform="scale(0.015625)"/>
      </defs>
      <use xlink:href="#TimesNewRomanPSMT-4e"/>
      <use xlink:href="#TimesNewRomanPSMT-75" x="72.216797"/>
      <use xlink:href="#TimesNewRomanPSMT-6d" x="122.216797"/>
      <use xlink:href="#TimesNewRomanPSMT-62" x="200"/>
      <use xlink:href="#TimesNewRomanPSMT-65" x="250"/>
      <use xlink:href="#TimesNewRomanPSMT-72" x="294.384766"/>
      <use xlink:href="#TimesNewRomanPSMT-20" x="327.685547"/>
      <use xlink:href="#TimesNewRomanPSMT-6f" x="352.685547"/>
      <use xlink:href="#TimesNewRomanPSMT-66" x="402.685547"/>
      <use xlink:href="#TimesNewRomanPSMT-20" x="435.986328"/>
      <use xlink:href="#TimesNewRomanPSMT-45" x="460.986328"/>
      <use xlink:href="#TimesNewRomanPSMT-76" x="522.070312"/>
      <use xlink:href="#TimesNewRomanPSMT-65" x="572.070312"/>
      <use xlink:href="#TimesNewRomanPSMT-6e" x="616.455078"/>
      <use xlink:href="#TimesNewRomanPSMT-74" x="666.455078"/>
      <use xlink:href="#TimesNewRomanPSMT-73" x="694.238281"/>
     </g>
    </g>
   </g>
   <g id="line2d_25">
    <path d="M 251.461218 307.584 
L 251.461218 66.212571 
" clip-path="url(#pcd0b678fb9)" style="fill: none; stroke: #ffffff; stroke-width: 2; stroke-linecap: square"/>
   </g>
   <g id="line2d_26">
    <path d="M 251.461218 307.584 
L 251.461218 54.144 
" clip-path="url(#pcd0b678fb9)" style="fill: none; stroke-dasharray: 7.4,3.2; stroke-dashoffset: 0; stroke: #ff0000; stroke-width: 2"/>
   </g>
   <g id="patch_72">
    <path d="M 57.6 307.584 
L 57.6 41.472 
" style="fill: none; stroke: #000000; stroke-width: 0.8; stroke-linejoin: miter; stroke-linecap: square"/>
   </g>
   <g id="patch_73">
    <path d="M 414.72 307.584 
L 414.72 41.472 
" style="fill: none; stroke: #000000; stroke-width: 0.8; stroke-linejoin: miter; stroke-linecap: square"/>
   </g>
   <g id="patch_74">
    <path d="M 57.6 307.584 
L 414.72 307.584 
" style="fill: none; stroke: #000000; stroke-width: 0.8; stroke-linejoin: miter; stroke-linecap: square"/>
   </g>
   <g id="patch_75">
    <path d="M 57.6 41.472 
L 414.72 41.472 
" style="fill: none; stroke: #000000; stroke-width: 0.8; stroke-linejoin: miter; stroke-linecap: square"/>
   </g>
   <g id="legend_1">
    <g id="patch_76">
     <path d="M 67.4 112.056062 
L 179.68 112.056062 
Q 182.48 112.056062 182.48 109.256062 
L 182.48 51.272 
Q 182.48 48.472 179.68 48.472 
L 67.4 48.472 
Q 64.6 48.472 64.6 51.272 
L 64.6 109.256062 
Q 64.6 112.056062 67.4 112.056062 
z
" style="fill: #ffffff; opacity: 0.8; stroke: #cccccc; stroke-linejoin: miter"/>
    </g>
    <g id="line2d_27">
     <path d="M 70.2 58.972 
L 84.2 58.972 
L 98.2 58.972 
" style="fill: none; stroke: #ffffff; stroke-width: 2; stroke-linecap: square"/>
    </g>
    <g id="text_15">
     <!-- $N_\mathrm{tot}$=67046 -->
     <g transform="translate(109.4 63.872) scale(0.14 -0.14)">
      <defs>
       <path id="DejaVuSans-Oblique-4e" d="M 1081 4666 
L 1931 4666 
L 3219 666 
L 4000 4666 
L 4616 4666 
L 3706 0 
L 2853 0 
L 1569 4025 
L 788 0 
L 172 0 
L 1081 4666 
z
" transform="scale(0.015625)"/>
       <path id="DejaVuSans-74" d="M 1172 4494 
L 1172 3500 
L 2356 3500 
L 2356 3053 
L 1172 3053 
L 1172 1153 
Q 1172 725 1289 603 
Q 1406 481 1766 481 
L 2356 481 
L 2356 0 
L 1766 0 
Q 1100 0 847 248 
Q 594 497 594 1153 
L 594 3053 
L 172 3053 
L 172 3500 
L 594 3500 
L 594 4494 
L 1172 4494 
z
" transform="scale(0.015625)"/>
       <path id="DejaVuSans-6f" d="M 1959 3097 
Q 1497 3097 1228 2736 
Q 959 2375 959 1747 
Q 959 1119 1226 758 
Q 1494 397 1959 397 
Q 2419 397 2687 759 
Q 2956 1122 2956 1747 
Q 2956 2369 2687 2733 
Q 2419 3097 1959 3097 
z
M 1959 3584 
Q 2709 3584 3137 3096 
Q 3566 2609 3566 1747 
Q 3566 888 3137 398 
Q 2709 -91 1959 -91 
Q 1206 -91 779 398 
Q 353 888 353 1747 
Q 353 2609 779 3096 
Q 1206 3584 1959 3584 
z
" transform="scale(0.015625)"/>
       <path id="TimesNewRomanPSMT-3d" d="M 116 2759 
L 3488 2759 
L 3488 2503 
L 116 2503 
L 116 2759 
z
M 116 1741 
L 3488 1741 
L 3488 1484 
L 116 1484 
L 116 1741 
z
" transform="scale(0.015625)"/>
       <path id="TimesNewRomanPSMT-37" d="M 644 4238 
L 2916 4238 
L 2916 4119 
L 1503 -88 
L 1153 -88 
L 2419 3728 
L 1253 3728 
Q 900 3728 750 3644 
Q 488 3500 328 3200 
L 238 3234 
L 644 4238 
z
" transform="scale(0.015625)"/>
      </defs>
      <use xlink:href="#DejaVuSans-Oblique-4e" transform="translate(0 0.09375)"/>
      <use xlink:href="#DejaVuSans-74" transform="translate(74.804688 -16.3125) scale(0.7)"/>
      <use xlink:href="#DejaVuSans-6f" transform="translate(102.250977 -16.3125) scale(0.7)"/>
      <use xlink:href="#DejaVuSans-74" transform="translate(145.078125 -16.3125) scale(0.7)"/>
      <use xlink:href="#TimesNewRomanPSMT-3d" transform="translate(175.258789 0.09375)"/>
      <use xlink:href="#TimesNewRomanPSMT-36" transform="translate(231.655273 0.09375)"/>
      <use xlink:href="#TimesNewRomanPSMT-37" transform="translate(281.655273 0.09375)"/>
      <use xlink:href="#TimesNewRomanPSMT-30" transform="translate(331.655273 0.09375)"/>
      <use xlink:href="#TimesNewRomanPSMT-34" transform="translate(381.655273 0.09375)"/>
      <use xlink:href="#TimesNewRomanPSMT-36" transform="translate(431.655273 0.09375)"/>
     </g>
    </g>
    <g id="line2d_28">
     <path d="M 70.2 78.766687 
L 84.2 78.766687 
L 98.2 78.766687 
" style="fill: none; stroke-dasharray: 7.4,3.2; stroke-dashoffset: 0; stroke: #ff0000; stroke-width: 2"/>
    </g>
    <g id="text_16">
     <!-- $N_\mathrm{cl}$=55188 -->
     <g transform="translate(109.4 83.666687) scale(0.14 -0.14)">
      <defs>
       <path id="DejaVuSans-63" d="M 3122 3366 
L 3122 2828 
Q 2878 2963 2633 3030 
Q 2388 3097 2138 3097 
Q 1578 3097 1268 2742 
Q 959 2388 959 1747 
Q 959 1106 1268 751 
Q 1578 397 2138 397 
Q 2388 397 2633 464 
Q 2878 531 3122 666 
L 3122 134 
Q 2881 22 2623 -34 
Q 2366 -91 2075 -91 
Q 1284 -91 818 406 
Q 353 903 353 1747 
Q 353 2603 823 3093 
Q 1294 3584 2113 3584 
Q 2378 3584 2631 3529 
Q 2884 3475 3122 3366 
z
" transform="scale(0.015625)"/>
       <path id="DejaVuSans-6c" d="M 603 4863 
L 1178 4863 
L 1178 0 
L 603 0 
L 603 4863 
z
" transform="scale(0.015625)"/>
      </defs>
      <use xlink:href="#DejaVuSans-Oblique-4e" transform="translate(0 0.09375)"/>
      <use xlink:href="#DejaVuSans-63" transform="translate(74.804688 -16.3125) scale(0.7)"/>
      <use xlink:href="#DejaVuSans-6c" transform="translate(113.291016 -16.3125) scale(0.7)"/>
      <use xlink:href="#TimesNewRomanPSMT-3d" transform="translate(135.473633 0.09375)"/>
      <use xlink:href="#TimesNewRomanPSMT-35" transform="translate(191.870117 0.09375)"/>
      <use xlink:href="#TimesNewRomanPSMT-35" transform="translate(241.870117 0.09375)"/>
      <use xlink:href="#TimesNewRomanPSMT-31" transform="translate(291.870117 0.09375)"/>
      <use xlink:href="#TimesNewRomanPSMT-38" transform="translate(341.870117 0.09375)"/>
      <use xlink:href="#TimesNewRomanPSMT-38" transform="translate(391.870117 0.09375)"/>
     </g>
    </g>
    <g id="patch_77">
     <path d="M 70.2 103.461375 
L 98.2 103.461375 
L 98.2 93.661375 
L 70.2 93.661375 
z
" style="fill: #808080"/>
    </g>
    <g id="text_17">
     <!-- Mc = 2.5 -->
     <g transform="translate(109.4 103.461375) scale(0.14 -0.14)">
      <defs>
       <path id="TimesNewRomanPSMT-4d" d="M 2619 0 
L 981 3566 
L 981 734 
Q 981 344 1066 247 
Q 1181 116 1431 116 
L 1581 116 
L 1581 0 
L 106 0 
L 106 116 
L 256 116 
Q 525 116 638 278 
Q 706 378 706 734 
L 706 3503 
Q 706 3784 644 3909 
Q 600 4000 483 4061 
Q 366 4122 106 4122 
L 106 4238 
L 1306 4238 
L 2844 922 
L 4356 4238 
L 5556 4238 
L 5556 4122 
L 5409 4122 
Q 5138 4122 5025 3959 
Q 4956 3859 4956 3503 
L 4956 734 
Q 4956 344 5044 247 
Q 5159 116 5409 116 
L 5556 116 
L 5556 0 
L 3756 0 
L 3756 116 
L 3906 116 
Q 4178 116 4288 278 
Q 4356 378 4356 734 
L 4356 3566 
L 2722 0 
L 2619 0 
z
" transform="scale(0.015625)"/>
       <path id="TimesNewRomanPSMT-63" d="M 2631 1088 
Q 2516 522 2178 217 
Q 1841 -88 1431 -88 
Q 944 -88 581 321 
Q 219 731 219 1428 
Q 219 2103 620 2525 
Q 1022 2947 1584 2947 
Q 2006 2947 2278 2723 
Q 2550 2500 2550 2259 
Q 2550 2141 2473 2067 
Q 2397 1994 2259 1994 
Q 2075 1994 1981 2113 
Q 1928 2178 1911 2362 
Q 1894 2547 1784 2644 
Q 1675 2738 1481 2738 
Q 1169 2738 978 2506 
Q 725 2200 725 1697 
Q 725 1184 976 792 
Q 1228 400 1656 400 
Q 1963 400 2206 609 
Q 2378 753 2541 1131 
L 2631 1088 
z
" transform="scale(0.015625)"/>
      </defs>
      <use xlink:href="#TimesNewRomanPSMT-4d"/>
      <use xlink:href="#TimesNewRomanPSMT-63" x="88.916016"/>
      <use xlink:href="#TimesNewRomanPSMT-20" x="133.300781"/>
      <use xlink:href="#TimesNewRomanPSMT-3d" x="158.300781"/>
      <use xlink:href="#TimesNewRomanPSMT-20" x="214.697266"/>
      <use xlink:href="#TimesNewRomanPSMT-32" x="239.697266"/>
      <use xlink:href="#TimesNewRomanPSMT-2e" x="289.697266"/>
      <use xlink:href="#TimesNewRomanPSMT-35" x="314.697266"/>
     </g>
    </g>
   </g>
  </g>
 </g>
 <defs>
  <clipPath id="pcd0b678fb9">
   <rect x="57.6" y="41.472" width="357.12" height="266.112"/>
  </clipPath>
 </defs>
</svg>
